<svg width="30" height="16" viewBox="0 0 30 16" fill="none" xmlns="http://www.w3.org/2000/svg">
<g id="360-degree-rotate-icon 1" clip-path="url(#clip0_7784_10238)">
<g id="Group">
<path id="Vector" fill-rule="evenodd" clip-rule="evenodd" d="M3.26405 7.61696C-2.1632 10.584 12.4559 12.3861 15.7494 12.3569V10.5475L18.4862 13.2713L15.7494 16V14.3049C9.13075 14.5554 -6.44787 10.3116 2.92225 6.79009C3.01014 7.0649 3.11756 7.32513 3.23963 7.56832L3.26405 7.61696ZM26.455 2.02098C26.455 1.38623 26.5697 0.941176 26.7992 0.68825C27.0287 0.435324 27.3778 0.308862 27.849 0.308862C28.0736 0.308862 28.2616 0.338045 28.4057 0.391549C28.5497 0.447484 28.6693 0.518012 28.7597 0.607995C28.8524 0.695546 28.9232 0.790394 28.9769 0.887673C29.0307 0.984952 29.0722 1.09926 29.1039 1.23058C29.1674 1.47864 29.1967 1.73887 29.1967 2.01125C29.1967 2.61681 29.0941 3.06186 28.8866 3.34154C28.6815 3.62122 28.3275 3.76227 27.8222 3.76227C27.5414 3.76227 27.3119 3.71607 27.1386 3.62852C26.9652 3.53853 26.8212 3.4072 26.7113 3.23453C26.6307 3.1105 26.5673 2.9427 26.5233 2.73111C26.4769 2.51467 26.455 2.2812 26.455 2.02098ZM6.46229 2.55115L4.26502 2.16203C4.44813 1.46648 4.79725 0.931449 5.31727 0.559355C5.83485 0.187262 6.56971 0 7.51942 0C8.61073 0 9.39686 0.201854 9.88514 0.607995C10.371 1.01414 10.6127 1.52485 10.6127 2.13771C10.6127 2.49764 10.5126 2.82353 10.3173 3.11294C10.1195 3.40477 9.82411 3.66013 9.42616 3.87901C9.74842 3.95926 9.99745 4.05168 10.1659 4.15869C10.4442 4.32893 10.6591 4.5551 10.8129 4.83235C10.9667 5.11202 11.0448 5.44277 11.0448 5.82946C11.0448 6.31585 10.9179 6.78036 10.664 7.22785C10.4076 7.6729 10.0414 8.01581 9.56288 8.25657C9.08436 8.49734 8.45448 8.61651 7.67323 8.61651C6.91395 8.61651 6.31336 8.52652 5.87635 8.34899C5.4369 8.17146 5.07557 7.91123 4.79237 7.56589C4.50917 7.22298 4.29188 6.79009 4.14051 6.26965L6.46717 5.96078C6.55995 6.42772 6.69911 6.75361 6.89198 6.93601C7.08241 7.11597 7.32655 7.20839 7.6244 7.20839C7.93446 7.20839 8.19325 7.09409 8.40077 6.86791C8.60829 6.64174 8.71083 6.33774 8.71083 5.95835C8.71083 5.57167 8.61073 5.27253 8.41297 5.06095C8.21522 4.84937 7.94422 4.74236 7.60243 4.74236C7.42176 4.74236 7.1703 4.78614 6.85292 4.87855L6.97254 3.22237C7.0995 3.24183 7.1996 3.25156 7.2704 3.25156C7.57069 3.25156 7.82215 3.15428 8.02235 2.96215C8.22254 2.77003 8.32508 2.54385 8.32508 2.27877C8.32508 2.02341 8.2494 1.82155 8.09803 1.6732C7.94667 1.52242 7.7367 1.44703 7.47547 1.44703C7.20204 1.44703 6.98231 1.52972 6.81141 1.69266C6.63807 1.85317 6.52333 2.14014 6.46229 2.55115ZM18.3471 2.01125L16.0326 2.29336C15.9716 1.97234 15.8715 1.74859 15.7299 1.61727C15.5858 1.48594 15.41 1.42028 15.2025 1.42028C14.8265 1.42028 14.5336 1.60754 14.3261 1.98693C14.1747 2.26174 14.0599 2.84299 13.9891 3.73552C14.2675 3.45341 14.5531 3.24669 14.8436 3.11294C15.1366 2.97918 15.476 2.91108 15.8593 2.91108C16.6063 2.91108 17.2362 3.17617 17.7514 3.70634C18.2665 4.23894 18.5253 4.9126 18.5253 5.72731C18.5253 6.27694 18.3959 6.77793 18.1347 7.23514C17.8734 7.68992 17.5121 8.03526 17.0507 8.26873C16.5868 8.5022 16.0082 8.61894 15.3099 8.61894C14.4725 8.61894 13.8012 8.47788 13.2958 8.19091C12.7904 7.90637 12.3851 7.45402 12.0824 6.83143C11.7797 6.20885 11.6283 5.3844 11.6283 4.35568C11.6283 2.85271 11.9457 1.75103 12.5829 1.05062C13.2152 0.350205 14.0966 0 15.2245 0C15.891 0 16.4159 0.0753914 16.8016 0.228606C17.1874 0.381821 17.5097 0.607995 17.7636 0.899833C18.0199 1.19653 18.2152 1.5662 18.3471 2.01125ZM14.0673 5.72731C14.0673 6.17966 14.182 6.5323 14.4091 6.78766C14.6386 7.04302 14.9169 7.17191 15.2489 7.17191C15.5541 7.17191 15.8104 7.05518 16.0155 6.82414C16.2206 6.5931 16.3231 6.24776 16.3231 5.78811C16.3231 5.31874 16.2157 4.95881 16.0033 4.71318C15.7885 4.46755 15.5248 4.34352 15.2074 4.34352C14.8851 4.34352 14.6117 4.46268 14.392 4.70345C14.1747 4.94178 14.0673 5.28226 14.0673 5.72731ZM19.0209 4.27299C19.0209 2.68977 19.3065 1.58079 19.8803 0.948472C20.4515 0.316158 21.3256 0 22.495 0C23.059 0 23.5204 0.0705274 23.8817 0.206718C24.2431 0.345341 24.5385 0.525308 24.7655 0.746618C24.995 0.967928 25.1757 1.2014 25.3051 1.4446C25.4369 1.69023 25.5419 1.97477 25.6224 2.30065C25.7787 2.92081 25.8568 3.57015 25.8568 4.24624C25.8568 5.75893 25.6005 6.86305 25.0853 7.56346C24.5726 8.26387 23.6889 8.61407 22.4315 8.61407C21.7284 8.61407 21.1596 8.5022 20.725 8.27846C20.2904 8.05472 19.9364 7.7264 19.6581 7.29351C19.4579 6.98708 19.2992 6.56878 19.1869 6.03618C19.077 5.506 19.0209 4.91746 19.0209 4.27299ZM21.3231 4.27785C21.3231 5.3382 21.4159 6.06293 21.6063 6.45204C21.7943 6.84116 22.0678 7.03329 22.4266 7.03329C22.6635 7.03329 22.8661 6.9506 23.0394 6.78766C23.2128 6.62228 23.3397 6.35963 23.4203 6.00456C23.5033 5.64706 23.5424 5.09257 23.5424 4.33865C23.5424 3.2321 23.4496 2.49035 23.2592 2.1061C23.0712 1.72671 22.788 1.53458 22.412 1.53458C22.0263 1.53458 21.7504 1.72914 21.577 2.11582C21.4086 2.50737 21.3231 3.22724 21.3231 4.27785ZM27.3778 2.02341C27.3778 2.449 27.4144 2.73841 27.4901 2.89406C27.5658 3.0497 27.6757 3.12753 27.8197 3.12753C27.9149 3.12753 27.9955 3.09591 28.0663 3.02782C28.1347 2.96215 28.1859 2.85758 28.2201 2.71409C28.2518 2.5706 28.2689 2.34929 28.2689 2.04773C28.2689 1.60511 28.2323 1.30597 28.1566 1.15276C28.0809 0.999544 27.9686 0.924153 27.8173 0.924153C27.6635 0.924153 27.5512 1.00198 27.4828 1.15762C27.412 1.31327 27.3778 1.60268 27.3778 2.02341ZM26.6845 7.35188C29.2626 8.65785 28.6474 10.511 24.0819 11.637C22.788 11.9556 21.3256 12.245 19.7216 12.3642V13.8355C21.5062 13.7115 23.1664 13.3029 24.619 12.9527C31.4843 11.2965 31.245 8.33926 26.9042 6.67092C26.8432 6.91169 26.7699 7.13786 26.6845 7.35188Z" fill="white" fill-opacity="0.75"/>
</g>
</g>
<defs>
<clipPath id="clip0_7784_10238">
<rect width="30" height="16" fill="white"/>
</clipPath>
</defs>
</svg>
