<?xml version="1.0" encoding="UTF-8"?>
<svg version="1.1" xmlns="http://www.w3.org/2000/svg" width="284" height="200">
<path d="M0 0 C4.29 0 8.58 0 13 0 C13 0.66 13 1.32 13 2 C14.299375 1.979375 15.59875 1.95875 16.9375 1.9375 C21.69382325 1.92995028 26.28388953 2.40112883 31 3 C31 3.66 31 4.32 31 5 C32.299375 4.979375 33.59875 4.95875 34.9375 4.9375 C39.69382325 4.92995028 44.28388953 5.40112883 49 6 C49 6.66 49 7.32 49 8 C50.299375 7.979375 51.59875 7.95875 52.9375 7.9375 C57.65161104 7.9375 62.35326912 8.15985446 67 9 C67.33 9.33 67.66 9.66 68 10 C69.33802186 10.22513101 70.68573023 10.39360807 72.03515625 10.53515625 C72.84404297 10.62216797 73.65292969 10.70917969 74.48632812 10.79882812 C75.33646484 10.88583984 76.18660156 10.97285156 77.0625 11.0625 C77.91650391 11.15337891 78.77050781 11.24425781 79.65039062 11.33789062 C81.76651535 11.56250722 83.88320894 11.78175227 86 12 C86 12.66 86 13.32 86 14 C87.299375 13.979375 88.59875 13.95875 89.9375 13.9375 C94.69382325 13.92995028 99.28388953 14.40112883 104 15 C104 15.66 104 16.32 104 17 C105.299375 16.979375 106.59875 16.95875 107.9375 16.9375 C112.65161104 16.9375 117.35326912 17.15985446 122 18 C122.33 18.33 122.66 18.66 123 19 C124.33802186 19.22513101 125.68573023 19.39360807 127.03515625 19.53515625 C127.84404297 19.62216797 128.65292969 19.70917969 129.48632812 19.79882812 C130.33646484 19.88583984 131.18660156 19.97285156 132.0625 20.0625 C132.91650391 20.15337891 133.77050781 20.24425781 134.65039062 20.33789062 C136.76651535 20.56250722 138.88320894 20.78175227 141 21 C141 21.66 141 22.32 141 23 C141.928125 23.0825 142.85625 23.165 143.8125 23.25 C147 24 147 24 148.6875 25.625 C150.44283562 28.80132161 150.29564499 31.14516699 150.1875 34.75 C150.14689453 36.50570312 150.14689453 36.50570312 150.10546875 38.296875 C150.07066406 39.18890625 150.03585937 40.0809375 150 41 C149.34 41 148.68 41 148 41 C148.0309375 42.9490625 148.0309375 42.9490625 148.0625 44.9375 C148.07004972 49.69382325 147.59887117 54.28388953 147 59 C146.34 59 145.68 59 145 59 C145.01160156 59.61746094 145.02320313 60.23492187 145.03515625 60.87109375 C145.09699663 66.67525544 144.74278956 72.24338088 144 78 C143.34 78 142.68 78 142 78 C142.0309375 79.9490625 142.0309375 79.9490625 142.0625 81.9375 C142.07004972 86.69382325 141.59887117 91.28388953 141 96 C140.34 96 139.68 96 139 96 C139.01160156 96.61488281 139.02320313 97.22976562 139.03515625 97.86328125 C139.04417969 98.67152344 139.05320312 99.47976562 139.0625 100.3125 C139.07410156 101.11300781 139.08570313 101.91351563 139.09765625 102.73828125 C139 105 139 105 138 108 C137.34 108 136.68 108 136 108 C135.67 108.99 135.34 109.98 135 111 C134.34 111 133.68 111 133 111 C133 111.66 133 112.32 133 113 C129.04 113 125.08 113 121 113 C121 112.34 121 111.68 121 111 C119.700625 111.020625 118.40125 111.04125 117.0625 111.0625 C112.34838896 111.0625 107.64673088 110.84014554 103 110 C102.67 109.67 102.34 109.34 102 109 C100.66197814 108.77486899 99.31426977 108.60639193 97.96484375 108.46484375 C97.15595703 108.37783203 96.34707031 108.29082031 95.51367188 108.20117188 C94.66353516 108.11416016 93.81339844 108.02714844 92.9375 107.9375 C92.08349609 107.84662109 91.22949219 107.75574219 90.34960938 107.66210938 C88.23348465 107.43749278 86.11679106 107.21824773 84 107 C84 106.34 84 105.68 84 105 C82.700625 105.020625 81.40125 105.04125 80.0625 105.0625 C75.30617675 105.07004972 70.71611047 104.59887117 66 104 C66 103.34 66 102.68 66 102 C64.72125 102.020625 63.4425 102.04125 62.125 102.0625 C57.03792983 102.07058755 52.0483853 101.59020789 47 101 C46.67 103.31 46.34 105.62 46 108 C46.99 108 47.98 108 49 108 C49.02696365 109.79158489 49.04637917 111.58328473 49.0625 113.375 C49.07410156 114.37273437 49.08570313 115.37046875 49.09765625 116.3984375 C49 119 49 119 48 121 C41.40712011 124.25533232 34.21362437 124.6587201 27 125.125 C24.93722897 125.26962232 22.87470664 125.41785364 20.8125 125.5703125 C19.91144531 125.62977051 19.01039063 125.68922852 18.08203125 125.75048828 C16.0130977 125.78092058 16.0130977 125.78092058 15 127 C13.2507128 127.09365006 11.49763746 127.11744438 9.74584961 127.11352539 C8.62476303 127.11344986 7.50367645 127.11337433 6.34861755 127.11329651 C4.51896202 127.10555458 4.51896202 127.10555458 2.65234375 127.09765625 C1.41078018 127.0962413 0.16921661 127.09482635 -1.10997009 127.09336853 C-4.41605491 127.08870591 -7.72207146 127.07971497 -11.02813721 127.06866455 C-14.3996115 127.05844827 -17.77109283 127.05387045 -21.14257812 127.04882812 C-27.76173775 127.03777395 -34.38086493 127.02101736 -41 127 C-41 126.34 -41 125.68 -41 125 C-41.97839844 125.01160156 -42.95679688 125.02320313 -43.96484375 125.03515625 C-54.66434687 125.10880081 -63.906821 124.79388998 -74 121 C-74 120.34 -74 119.68 -74 119 C-74.66 119 -75.32 119 -76 119 C-76 117.35 -76 115.7 -76 114 C-77.670625 113.814375 -77.670625 113.814375 -79.375 113.625 C-83 113 -83 113 -85 111 C-85.23046875 109.125 -85.23046875 109.125 -85.1875 107 C-85.18105469 106.29875 -85.17460938 105.5975 -85.16796875 104.875 C-85 103 -85 103 -84 101 C-83.34 101 -82.68 101 -82 101 C-82 100.34 -82 99.68 -82 99 C-83.65 98.67 -85.3 98.34 -87 98 C-87.28329101 94.29203542 -87.44731303 90.69851501 -87 87 C-84.17008851 84.3230567 -82.86319085 84 -79 84 C-79 82.35 -79 80.7 -79 79 C-80.98 78.67 -82.96 78.34 -85 78 C-85 77.34 -85 76.68 -85 76 C-85.66 76 -86.32 76 -87 76 C-87 72.7 -87 69.4 -87 66 C-86.34 66 -85.68 66 -85 66 C-85 65.34 -85 64.68 -85 64 C-80.545 63.505 -80.545 63.505 -76 63 C-76 62.34 -76 61.68 -76 61 C-74.8125 59.375 -74.8125 59.375 -73 58 C-70.3125 57.8125 -70.3125 57.8125 -68 58 C-68 57.34 -68 56.68 -68 56 C-66.06833984 55.80083984 -66.06833984 55.80083984 -64.09765625 55.59765625 C-62.41924638 55.41950101 -60.74086227 55.24110308 -59.0625 55.0625 C-57.78729492 54.93198242 -57.78729492 54.93198242 -56.48632812 54.79882812 C-55.27299805 54.66831055 -55.27299805 54.66831055 -54.03515625 54.53515625 C-53.2862915 54.456604 -52.53742676 54.37805176 -51.76586914 54.29711914 C-49.97859987 54.1719262 -49.97859987 54.1719262 -49 53 C-47.37406087 52.84180763 -45.74168915 52.74881178 -44.109375 52.68359375 C-43.09488281 52.64161865 -42.08039063 52.59964355 -41.03515625 52.55639648 C-39.95105469 52.51716064 -38.86695313 52.4779248 -37.75 52.4375 C-36.66074219 52.3950415 -35.57148437 52.35258301 -34.44921875 52.30883789 C-26.96200004 52.03163678 -19.49246914 51.86829644 -12 52 C-12 49.03 -12 46.06 -12 43 C-11.34 43 -10.68 43 -10 43 C-10.020625 41.700625 -10.04125 40.40125 -10.0625 39.0625 C-10.0625 26.0625 -10.0625 26.0625 -8 24 C-7.77486899 22.66197814 -7.60639193 21.31426977 -7.46484375 19.96484375 C-7.37783203 19.15595703 -7.29082031 18.34707031 -7.20117188 17.51367188 C-7.11416016 16.66353516 -7.02714844 15.81339844 -6.9375 14.9375 C-6.84662109 14.08349609 -6.75574219 13.22949219 -6.66210938 12.34960938 C-6.43749278 10.23348465 -6.21824773 8.11679106 -6 6 C-5.34 6 -4.68 6 -4 6 C-3.67 4.68 -3.34 3.36 -3 2 C-2.01 2 -1.02 2 0 2 C0 1.34 0 0.68 0 0 Z " fill="#1A365B" transform="translate(121,42)"/>
<path d="M0 0 C-0.06058594 0.64582031 -0.12117188 1.29164062 -0.18359375 1.95703125 C-0.77704839 8.63111338 -1.2640232 15.31315443 -1.6875 22 C-1.74800537 22.8247583 -1.80851074 23.6495166 -1.87084961 24.49926758 C-1.91733643 25.28325928 -1.96382324 26.06725098 -2.01171875 26.875 C-2.05772217 27.57367188 -2.10372559 28.27234375 -2.15112305 28.9921875 C-1.96692971 31.43937 -1.32078072 32.94018446 0 35 C2.57515078 36.08247056 2.57515078 36.08247056 5.6875 36.625 C6.84894531 36.86347656 8.01039062 37.10195312 9.20703125 37.34765625 C14.28463404 38.22094118 19.37329461 38.89222023 24.4921875 39.47265625 C28.12317514 40.01851742 31.48319877 40.95829348 35 42 C37.33257494 42.33859959 39.66574212 42.6732039 42 43 C42.33 43.33 42.66 43.66 43 44 C45.32986123 44.20968751 47.66444036 44.36815389 50 44.5 C56.88888889 44.88888889 56.88888889 44.88888889 58 46 C59.34747084 46.23075082 60.70377565 46.41153063 62.0625 46.5625 C63.361875 46.706875 64.66125 46.85125 66 47 C66 47.66 66 48.32 66 49 C63.69 49 61.38 49 59 49 C58.67 51.31 58.34 53.62 58 56 C58.99 56 59.98 56 61 56 C61.02696365 57.79158489 61.04637917 59.58328473 61.0625 61.375 C61.07410156 62.37273437 61.08570313 63.37046875 61.09765625 64.3984375 C61 67 61 67 60 69 C53.40712011 72.25533232 46.21362437 72.6587201 39 73.125 C36.93722897 73.26962232 34.87470664 73.41785364 32.8125 73.5703125 C31.91144531 73.62977051 31.01039063 73.68922852 30.08203125 73.75048828 C28.0130977 73.78092058 28.0130977 73.78092058 27 75 C25.2507128 75.09365006 23.49763746 75.11744438 21.74584961 75.11352539 C20.62476303 75.11344986 19.50367645 75.11337433 18.34861755 75.11329651 C16.51896202 75.10555458 16.51896202 75.10555458 14.65234375 75.09765625 C13.41078018 75.0962413 12.16921661 75.09482635 10.89002991 75.09336853 C7.58394509 75.08870591 4.27792854 75.07971497 0.97186279 75.06866455 C-2.3996115 75.05844827 -5.77109283 75.05387045 -9.14257812 75.04882812 C-15.76173775 75.03777395 -22.38086493 75.02101736 -29 75 C-29 74.34 -29 73.68 -29 73 C-29.97839844 73.01160156 -30.95679688 73.02320313 -31.96484375 73.03515625 C-42.66434687 73.10880081 -51.906821 72.79388998 -62 69 C-62 68.34 -62 67.68 -62 67 C-62.66 67 -63.32 67 -64 67 C-64 65.35 -64 63.7 -64 62 C-65.670625 61.814375 -65.670625 61.814375 -67.375 61.625 C-71 61 -71 61 -73 59 C-73.23046875 57.125 -73.23046875 57.125 -73.1875 55 C-73.18105469 54.29875 -73.17460938 53.5975 -73.16796875 52.875 C-73 51 -73 51 -72 49 C-71.34 49 -70.68 49 -70 49 C-70 48.34 -70 47.68 -70 47 C-71.65 46.67 -73.3 46.34 -75 46 C-75.28329101 42.29203542 -75.44731303 38.69851501 -75 35 C-72.17008851 32.3230567 -70.86319085 32 -67 32 C-67 30.35 -67 28.7 -67 27 C-68.98 26.67 -70.96 26.34 -73 26 C-73 25.34 -73 24.68 -73 24 C-73.66 24 -74.32 24 -75 24 C-75 20.7 -75 17.4 -75 14 C-74.34 14 -73.68 14 -73 14 C-73 13.34 -73 12.68 -73 12 C-68.545 11.505 -68.545 11.505 -64 11 C-64 10.34 -64 9.68 -64 9 C-62.8125 7.375 -62.8125 7.375 -61 6 C-58.3125 5.8125 -58.3125 5.8125 -56 6 C-56 5.34 -56 4.68 -56 4 C-54.71222656 3.86722656 -53.42445312 3.73445313 -52.09765625 3.59765625 C-50.41924638 3.41950101 -48.74086227 3.24110308 -47.0625 3.0625 C-46.21236328 2.97548828 -45.36222656 2.88847656 -44.48632812 2.79882812 C-43.67744141 2.71181641 -42.86855469 2.62480469 -42.03515625 2.53515625 C-41.2862915 2.456604 -40.53742676 2.37805176 -39.76586914 2.29711914 C-37.97859987 2.1719262 -37.97859987 2.1719262 -37 1 C-35.37406087 0.84180763 -33.74168915 0.74881178 -32.109375 0.68359375 C-31.09488281 0.64161865 -30.08039063 0.59964355 -29.03515625 0.55639648 C-27.40900391 0.49754272 -27.40900391 0.49754272 -25.75 0.4375 C-24.66074219 0.3950415 -23.57148437 0.35258301 -22.44921875 0.30883789 C-14.96200004 0.03163678 -7.49246914 -0.13170356 0 0 Z " fill="#D89437" transform="translate(109,94)"/>
<path d="M0 0 C-0.08733576 1.60517097 -0.19552224 3.20921662 -0.3125 4.8125 C-0.37050781 5.70582031 -0.42851563 6.59914063 -0.48828125 7.51953125 C-1.07681459 10.37234551 -1.61564677 11.35262868 -4 13 C-6.72507798 13.39078556 -9.23121956 13.13616953 -12 13 C-11.6875 11.125 -11.6875 11.125 -11 9 C-10.01 8.34 -9.02 7.68 -8 7 C-10.31 6.67 -12.62 6.34 -15 6 C-15.66 7.65 -16.32 9.3 -17 11 C-16.01 11.66 -15.02 12.32 -14 13 C-14 13.66 -14 14.32 -14 15 C-10.37 15 -6.74 15 -3 15 C-3 16.32 -3 17.64 -3 19 C-6.41664873 19.02908357 -9.8332655 19.04682691 -13.25 19.0625 C-14.21808594 19.07087891 -15.18617187 19.07925781 -16.18359375 19.08789062 C-17.11816406 19.09111328 -18.05273438 19.09433594 -19.015625 19.09765625 C-19.87446289 19.10289307 -20.73330078 19.10812988 -21.61816406 19.11352539 C-23.9073854 19.00441429 -25.79055246 18.57164351 -28 18 C-29.7716504 17.81301253 -31.54719978 17.66130313 -33.32421875 17.53515625 C-34.35353516 17.45716797 -35.38285156 17.37917969 -36.44335938 17.29882812 C-38.58641001 17.14271185 -40.72963879 16.98901995 -42.87304688 16.83789062 C-49.09744135 16.36147462 -54.94200603 15.51608435 -61 14 C-60.67 15.32 -60.34 16.64 -60 18 C-51.585 19.98 -51.585 19.98 -43 22 C-43 22.33 -43 22.66 -43 23 C-65.11664296 23.58890469 -65.11664296 23.58890469 -72 19 C-72 20.32 -72 21.64 -72 23 C-70.02 23.66 -68.04 24.32 -66 25 C-66 25.66 -66 26.32 -66 27 C-68.31 26.67 -70.62 26.34 -73 26 C-73 25.34 -73 24.68 -73 24 C-73.66 24 -74.32 24 -75 24 C-75 20.7 -75 17.4 -75 14 C-74.34 14 -73.68 14 -73 14 C-73 13.34 -73 12.68 -73 12 C-68.545 11.505 -68.545 11.505 -64 11 C-64 10.34 -64 9.68 -64 9 C-62.8125 7.375 -62.8125 7.375 -61 6 C-58.3125 5.8125 -58.3125 5.8125 -56 6 C-56 5.34 -56 4.68 -56 4 C-54.71222656 3.86722656 -53.42445312 3.73445313 -52.09765625 3.59765625 C-50.41924638 3.41950101 -48.74086227 3.24110308 -47.0625 3.0625 C-46.21236328 2.97548828 -45.36222656 2.88847656 -44.48632812 2.79882812 C-43.67744141 2.71181641 -42.86855469 2.62480469 -42.03515625 2.53515625 C-41.2862915 2.456604 -40.53742676 2.37805176 -39.76586914 2.29711914 C-37.97859987 2.1719262 -37.97859987 2.1719262 -37 1 C-35.37406087 0.84180763 -33.74168915 0.74881178 -32.109375 0.68359375 C-31.09488281 0.64161865 -30.08039063 0.59964355 -29.03515625 0.55639648 C-27.40900391 0.49754272 -27.40900391 0.49754272 -25.75 0.4375 C-24.66074219 0.3950415 -23.57148437 0.35258301 -22.44921875 0.30883789 C-14.96200004 0.03163678 -7.49246914 -0.13170356 0 0 Z " fill="#F5AD44" transform="translate(109,94)"/>
<path d="M0 0 C0.99 0 1.98 0 3 0 C3.12375 1.175625 3.12375 1.175625 3.25 2.375 C3.72806339 5.14749104 3.72806339 5.14749104 6.0625 6.3125 C6.701875 6.539375 7.34125 6.76625 8 7 C8 6.34 8 5.68 8 5 C7.01 5 6.02 5 5 5 C5 3.35 5 1.7 5 0 C9.29 0.33 13.58 0.66 18 1 C18 3.97 18 6.94 18 10 C17.34 10 16.68 10 16 10 C16 10.66 16 11.32 16 12 C15.01 12 14.02 12 13 12 C13.495 12.99 13.495 12.99 14 14 C16.63683189 14.58426322 19.2080312 15.04380856 21.875 15.4375 C22.67494385 15.56237793 23.4748877 15.68725586 24.29907227 15.81591797 C25.99816935 16.0807252 27.69781754 16.34201619 29.39794922 16.60009766 C31.9466241 16.9917968 34.49100018 17.40425159 37.03515625 17.82421875 C44.73397113 19.08680612 52.36956849 20.28541827 60.1640625 20.7890625 C62 21 62 21 63 22 C64.34747084 22.23075082 65.70377565 22.41153063 67.0625 22.5625 C68.361875 22.706875 69.66125 22.85125 71 23 C71 23.99 71 24.98 71 26 C64.07 25.505 64.07 25.505 57 25 C57 25.99 57 26.98 57 28 C59.31 28.66 61.62 29.32 64 30 C63.67 30.66 63.34 31.32 63 32 C52.49265777 31.03555796 42.22682026 29.6158227 31.90332031 27.40917969 C26.94235523 26.35265902 22.04262509 25.55965061 17 25 C17 24.34 17 23.68 17 23 C15.741875 23.04125 14.48375 23.0825 13.1875 23.125 C7.90378402 23.11745183 2.69178916 22.69893866 -2.5625 22.1875 C-3.35309814 22.11740723 -4.14369629 22.04731445 -4.95825195 21.97509766 C-9.93109897 21.4592272 -14.36386791 20.38999604 -19.06396484 18.68164062 C-21.34245094 17.87942963 -23.61708571 17.38434101 -26 17 C-26 16.34 -26 15.68 -26 15 C-25.34 15 -24.68 15 -24 15 C-23.67 13.02 -23.34 11.04 -23 9 C-19.7 9 -16.4 9 -13 9 C-13 9.66 -13 10.32 -13 11 C-11.741875 10.979375 -10.48375 10.95875 -9.1875 10.9375 C-3.75485053 10.92884928 1.60104876 11.43487613 7 12 C7 11.34 7 10.68 7 10 C6.34 10 5.68 10 5 10 C5 9.34 5 8.68 5 8 C2.36 7.67 -0.28 7.34 -3 7 C-3 5.68 -3 4.36 -3 3 C-2.34 3 -1.68 3 -1 3 C-0.67 2.01 -0.34 1.02 0 0 Z " fill="#59708D" transform="translate(143,102)"/>
<path d="M0 0 C0.56283691 0.08564209 1.12567383 0.17128418 1.70556641 0.25952148 C4.34456801 0.65776495 6.98474917 1.0476278 9.625 1.4375 C10.95144531 1.63956055 10.95144531 1.63956055 12.3046875 1.84570312 C25.93307717 3.84128876 39.6283319 4.21486027 53.375 4.5625 C54.99740345 4.60583551 56.61979938 4.6494537 58.2421875 4.69335938 C62.16137954 4.79882006 66.08065237 4.90049656 70 5 C70 4.34 70 3.68 70 3 C67.36 3 64.72 3 62 3 C61.505 2.01 61.505 2.01 61 1 C62.14662109 1.18175781 62.14662109 1.18175781 63.31640625 1.3671875 C70.69530941 2.52152855 78.07739287 3.54067819 85.4921875 4.4375 C89.1106621 5.01774537 92.48835464 5.9639814 96 7 C98.33257494 7.33859959 100.66574212 7.6732039 103 8 C103.495 8.495 103.495 8.495 104 9 C107.62266294 9.28528471 111.24530434 9.44912228 114.875 9.62109375 C115.90625 9.74613281 116.9375 9.87117187 118 10 C118.495 10.99 118.495 10.99 119 12 C118.11699219 11.96519531 117.23398438 11.93039063 116.32421875 11.89453125 C109.36097045 11.7374655 103.57368273 12.17333399 96.93920898 14.23217773 C84.14015328 17.57573037 69.52184127 16.15337801 56.40966797 16.13037109 C52.7170818 16.12495169 49.024614 16.13037327 45.33203125 16.13671875 C42.9869789 16.13605898 40.64192662 16.13477993 38.296875 16.1328125 C37.19180603 16.13483673 36.08673706 16.13686096 34.94818115 16.13894653 C33.93242004 16.13579437 32.91665894 16.13264221 31.87011719 16.12939453 C30.97524597 16.12859894 30.08037476 16.12780334 29.15838623 16.12698364 C27 16 27 16 25 15 C25.33 13.68 25.66 12.36 26 11 C33.92 11 41.84 11 50 11 C47.78023437 10.81824219 45.56046875 10.63648438 43.2734375 10.44921875 C41.0720744 10.26264866 38.87099696 10.07299116 36.66992188 9.88305664 C35.16530933 9.75484444 33.66042856 9.62973383 32.15527344 9.50805664 C6.66031137 7.44020758 6.66031137 7.44020758 0 3 C0 2.01 0 1.02 0 0 Z " fill="#D49237" transform="translate(48,129)"/>
<path d="M0 0 C2.97 0 5.94 0 9 0 C9 0.66 9 1.32 9 2 C10.74603516 1.938125 10.74603516 1.938125 12.52734375 1.875 C19.60302261 1.875 26.57172103 3.01535997 33.5625 4 C34.96672096 4.19326075 36.37101746 4.38597342 37.77539062 4.578125 C41.18448761 5.04576984 44.59250349 5.52081583 48 6 C48 6.66 48 7.32 48 8 C49.03898437 8.04898438 50.07796875 8.09796875 51.1484375 8.1484375 C52.55731203 8.22357747 53.96616512 8.2991202 55.375 8.375 C56.05433594 8.4059375 56.73367187 8.436875 57.43359375 8.46875 C63.09183372 8.78603448 68.46472282 9.82453913 74 11 C75.8558646 11.36145532 77.71266217 11.71814977 79.5703125 12.0703125 C80.48554688 12.24433594 81.40078125 12.41835937 82.34375 12.59765625 C83.2615625 12.77167969 84.179375 12.94570312 85.125 13.125 C86.55972656 13.39763672 86.55972656 13.39763672 88.0234375 13.67578125 C90.34887754 14.11761486 92.67439888 14.55901519 95 15 C95 17.64 95 20.28 95 23 C93.31287918 23.05491533 91.62521475 23.09319918 89.9375 23.125 C88.52791016 23.15980469 88.52791016 23.15980469 87.08984375 23.1953125 C83.49500941 22.96807898 80.45522293 22.01474442 77 21 C73.90822066 20.39879222 70.80021956 19.91696536 67.6875 19.4375 C59.26038062 18.13019031 59.26038062 18.13019031 57 17 C54.75246903 16.70677176 52.49825578 16.46411715 50.2421875 16.24609375 C49.57913605 16.18092056 48.91608459 16.11574738 48.23294067 16.04859924 C46.11396983 15.84118213 43.99451447 15.63927855 41.875 15.4375 C40.43876679 15.29788868 39.00256834 15.15791916 37.56640625 15.01757812 C34.04466492 14.67422716 30.52246842 14.33581919 27 14 C27 13.34 27 12.68 27 12 C26.14619751 11.970271 26.14619751 11.970271 25.27514648 11.93994141 C22.66218288 11.84388242 20.04993198 11.73453593 17.4375 11.625 C16.54224609 11.5940625 15.64699219 11.563125 14.72460938 11.53125 C9.49274255 11.30127783 4.96655124 10.67595556 0 9 C0 6.03 0 3.06 0 0 Z " fill="#DAE9F8" transform="translate(128,52)"/>
<path d="M0 0 C1.65 0 3.3 0 5 0 C5 0.99 5 1.98 5 3 C3.68 3.33 2.36 3.66 1 4 C1 4.66 1 5.32 1 6 C0.34 6 -0.32 6 -1 6 C-1 7.98 -1 9.96 -1 12 C2.63 12.33 6.26 12.66 10 13 C10 14.98 10 16.96 10 19 C16.64867055 21.41736792 23.11317568 21.34725098 30.1328125 21.4140625 C32.03605789 21.44311172 32.03605789 21.44311172 33.97775269 21.4727478 C37.34284196 21.52226898 40.70782708 21.56354748 44.07305908 21.60089111 C47.45766676 21.64065791 50.84209423 21.69214167 54.2265625 21.7421875 C74.8763557 22.16629083 74.8763557 22.16629083 95.51953125 21.78125 C96.56044922 21.73613281 97.60136719 21.69101563 98.67382812 21.64453125 C99.70958984 21.59683594 100.74535156 21.54914063 101.8125 21.5 C102.89853516 21.45230469 103.98457031 21.40460938 105.10351562 21.35546875 C107.7358007 21.23950905 110.36794262 21.12099934 113 21 C113 20.34 113 19.68 113 19 C113.92683594 18.74605469 114.85367188 18.49210937 115.80859375 18.23046875 C117.00613281 17.88628906 118.20367187 17.54210937 119.4375 17.1875 C120.63246094 16.85105469 121.82742187 16.51460937 123.05859375 16.16796875 C124.02925781 15.78253906 124.99992187 15.39710938 126 15 C126.33 14.01 126.66 13.02 127 12 C125.35 11.67 123.7 11.34 122 11 C122 9.68 122 8.36 122 7 C123.32 6.67 124.64 6.34 126 6 C126 4.35 126 2.7 126 1 C125.01 0.505 125.01 0.505 124 0 C127.96 0 131.92 0 136 0 C136 0.66 136 1.32 136 2 C133.69 2 131.38 2 129 2 C128.67 4.31 128.34 6.62 128 9 C128.99 9 129.98 9 131 9 C131.02696365 10.79158489 131.04637917 12.58328473 131.0625 14.375 C131.07410156 15.37273437 131.08570313 16.37046875 131.09765625 17.3984375 C131 20 131 20 130 22 C123.40712011 25.25533232 116.21362437 25.6587201 109 26.125 C106.93722897 26.26962232 104.87470664 26.41785364 102.8125 26.5703125 C101.46091797 26.65949951 101.46091797 26.65949951 100.08203125 26.75048828 C98.0130977 26.78092058 98.0130977 26.78092058 97 28 C95.2507128 28.09365006 93.49763746 28.11744438 91.74584961 28.11352539 C90.62476303 28.11344986 89.50367645 28.11337433 88.34861755 28.11329651 C86.51896202 28.10555458 86.51896202 28.10555458 84.65234375 28.09765625 C83.41078018 28.0962413 82.16921661 28.09482635 80.89002991 28.09336853 C77.58394509 28.08870591 74.27792854 28.07971497 70.97186279 28.06866455 C67.6003885 28.05844827 64.22890717 28.05387045 60.85742188 28.04882812 C54.23826225 28.03777395 47.61913507 28.02101736 41 28 C41 27.34 41 26.68 41 26 C39.53240234 26.01740234 39.53240234 26.01740234 38.03515625 26.03515625 C27.33565313 26.10880081 18.093179 25.79388998 8 22 C8 21.34 8 20.68 8 20 C7.34 20 6.68 20 6 20 C6 18.35 6 16.7 6 15 C4.88625 14.87625 3.7725 14.7525 2.625 14.625 C-1 14 -1 14 -3 12 C-3.23046875 10.125 -3.23046875 10.125 -3.1875 8 C-3.18105469 7.29875 -3.17460938 6.5975 -3.16796875 5.875 C-3 4 -3 4 -2 2 C-1.34 2 -0.68 2 0 2 C0 1.34 0 0.68 0 0 Z " fill="#D4A364" transform="translate(39,141)"/>
<path d="M0 0 C0.804375 0.309375 1.60875 0.61875 2.4375 0.9375 C6.06499292 2.01938385 9.39004909 2.44574942 13.14453125 2.75390625 C15 3 15 3 16 4 C17.56354695 4.15196833 19.13356321 4.23810388 20.70336914 4.29711914 C21.70433121 4.33708511 22.70529327 4.37705109 23.73658752 4.41822815 C24.8251152 4.45681442 25.91364288 4.4954007 27.03515625 4.53515625 C28.14354355 4.57813339 29.25193085 4.62111053 30.39390564 4.66539001 C33.9499494 4.80223857 37.50620226 4.93243536 41.0625 5.0625 C43.4668135 5.15386036 45.87111068 5.24565147 48.27539062 5.33789062 C54.18341306 5.56360088 60.09162072 5.78384385 66 6 C66 7.32 66 8.64 66 10 C60.84456725 10.02504882 55.68917129 10.04302192 50.53369141 10.05493164 C48.78628928 10.05990588 47.03889119 10.06668766 45.29150391 10.07543945 C34.80523267 10.12657732 24.45147904 9.95749452 14 9 C14 9.66 14 10.32 14 11 C14.77085938 10.98839844 15.54171875 10.97679688 16.3359375 10.96484375 C17.33882812 10.95582031 18.34171875 10.94679688 19.375 10.9375 C20.37273438 10.92589844 21.37046875 10.91429688 22.3984375 10.90234375 C25 11 25 11 27 12 C35.81269068 13.27514817 44.80187679 13.30200249 53.6875 13.5625 C55.08269161 13.60582087 56.47787402 13.64943878 57.87304688 13.69335938 C61.2486196 13.79848102 64.62425393 13.90062877 68 14 C68.495 15.98 68.495 15.98 69 18 C29.55871924 18.27935962 29.55871924 18.27935962 25 16 C21.53157361 15.51086294 18.05707629 15.10242382 14.578125 14.6953125 C10.92974737 13.98634829 8.22642065 12.81115024 5 11 C5.33 9.35 5.66 7.7 6 6 C5.071875 5.7834375 5.071875 5.7834375 4.125 5.5625 C2 5 2 5 0 4 C0 2.68 0 1.36 0 0 Z " fill="#D39035" transform="translate(37,113)"/>
<path d="M0 0 C0.52207031 0.29777344 1.04414062 0.59554687 1.58203125 0.90234375 C4.5716657 2.25951222 7.47465064 2.88741284 10.6875 3.5625 C12.42580078 3.93568359 12.42580078 3.93568359 14.19921875 4.31640625 C23.90443075 6.06194798 33.73565931 6.47347533 43.5625 7.0625 C45.06316351 7.15409284 46.56381468 7.24588807 48.06445312 7.33789062 C51.70949611 7.56092751 55.35469847 7.78122459 59 8 C59.495 9.98 59.495 9.98 60 12 C48.78 12 37.56 12 26 12 C26 12.66 26 13.32 26 14 C55.04 14 84.08 14 114 14 C114 14.33 114 14.66 114 15 C110.46834697 15.78672271 107.10578364 16.17580541 103.4921875 16.31640625 C102.42097656 16.35830078 101.34976563 16.40019531 100.24609375 16.44335938 C98.57740234 16.50233398 98.57740234 16.50233398 96.875 16.5625 C95.28751953 16.62727539 95.28751953 16.62727539 93.66796875 16.69335938 C76.8893188 17.31883567 60.08134288 17.03444581 43.29785156 16.73754883 C41.24455214 16.70383156 39.19114949 16.67595464 37.13769531 16.65356445 C34.11745145 16.62001148 31.09802371 16.5678346 28.078125 16.51171875 C26.71243378 16.50213387 26.71243378 16.50213387 25.31915283 16.49235535 C19.81347284 16.36550127 15.91490882 15.51389475 11 13 C11 11.02 11 9.04 11 7 C9.9275 7.020625 8.855 7.04125 7.75 7.0625 C4.85209576 7.0142016 2.71387859 6.86844115 0 6 C0 4.02 0 2.04 0 0 Z " fill="#D59236" transform="translate(38,147)"/>
<path d="M0 0 C0.99 0.99 0.99 0.99 2 2 C-12.48430167 11.86209271 -35.61852229 8.39037938 -52.42028809 8.26428223 C-55.44469627 8.24523007 -58.46904242 8.24113347 -61.49350262 8.2375679 C-65.16626771 8.23235748 -68.83898193 8.21789715 -72.51171875 8.203125 C-73.18636358 8.20124428 -73.86100842 8.19936356 -74.55609703 8.19742584 C-88.32881091 8.14776206 -101.70459844 7.93662728 -115 4 C-115 3.34 -115 2.68 -115 2 C-111.4789137 2.14008671 -107.95820288 2.28810982 -104.4375 2.4375 C-103.44685547 2.47681641 -102.45621094 2.51613281 -101.43554688 2.55664062 C-100.46552734 2.59853516 -99.49550781 2.64042969 -98.49609375 2.68359375 C-97.61107178 2.72025146 -96.7260498 2.75690918 -95.81420898 2.79467773 C-93 3 -93 3 -89.89306641 3.51147461 C-84.65507629 4.16876912 -79.48863538 4.14270386 -74.21484375 4.1328125 C-73.08156143 4.13376923 -71.94827911 4.13472595 -70.78065491 4.13571167 C-68.38607732 4.13639057 -65.99149786 4.13455657 -63.59692383 4.13037109 C-59.97407777 4.12505369 -56.35135767 4.13030795 -52.72851562 4.13671875 C-31.35849304 4.46552111 -31.35849304 4.46552111 -10.48046875 0.640625 C-6.81862284 -0.30511158 -3.76345361 -0.34213215 0 0 Z " fill="#F3AD47" transform="translate(161,140)"/>
<path d="M0 0 C5.28 0.33 10.56 0.66 16 1 C16 1.66 16 2.32 16 3 C17.299375 2.979375 18.59875 2.95875 19.9375 2.9375 C24.65161104 2.9375 29.35326912 3.15985446 34 4 C34.495 4.495 34.495 4.495 35 5 C36.51469448 5.23192865 38.03754562 5.41215238 39.5625 5.5625 C40.80193359 5.68818359 40.80193359 5.68818359 42.06640625 5.81640625 C42.70449219 5.87699219 43.34257812 5.93757813 44 6 C43.34 6.99 42.68 7.98 42 9 C38.375 9.1875 38.375 9.1875 35 9 C35 10.32 35 11.64 35 13 C39.72320555 13.70345615 44.41854241 14.24181609 49.1796875 14.62109375 C49.78039062 14.74613281 50.38109375 14.87117188 51 15 C51.495 15.99 51.495 15.99 52 17 C50.0412957 16.85923685 48.08303907 16.7122324 46.125 16.5625 C45.03445312 16.48128906 43.94390625 16.40007813 42.8203125 16.31640625 C40 16 40 16 38 15 C35.29127482 14.60772162 32.59248307 14.25430502 29.875 13.9375 C29.12089844 13.84662109 28.36679688 13.75574219 27.58984375 13.66210938 C25.72695812 13.43809148 23.86352748 13.21861427 22 13 C22 12.34 22 11.68 22 11 C21.09229858 11.02501587 21.09229858 11.02501587 20.16625977 11.05053711 C13.93904706 11.14700408 8.07225247 10.5873421 1.9375 9.5625 C-4.36719316 8.54341193 -10.64635618 7.65903858 -17 7 C-17 6.34 -17 5.68 -17 5 C-19.64 5 -22.28 5 -25 5 C-25 4.67 -25 4.34 -25 4 C-18.89771349 3.76629541 -13.36718594 4.1583889 -7.40625 5.48828125 C-3.95567605 6.22208837 -0.50458596 6.61060156 3 7 C3 6.34 3 5.68 3 5 C3.66 4.34 4.32 3.68 5 3 C2.525 2.505 2.525 2.505 0 2 C0 1.34 0 0.68 0 0 Z " fill="#324968" transform="translate(154,47)"/>
<path d="M0 0 C3.625 -0.1875 3.625 -0.1875 7 0 C7.495 0.99 7.495 0.99 8 2 C7.0409375 2.4021875 7.0409375 2.4021875 6.0625 2.8125 C3.66868314 3.88667752 3.66868314 3.88667752 3 7 C4.258125 6.87625 5.51625 6.7525 6.8125 6.625 C7.87404297 6.52058594 7.87404297 6.52058594 8.95703125 6.4140625 C11.29988142 6.07334609 11.29988142 6.07334609 14 4 C13.9592334 4.60996826 13.9184668 5.21993652 13.87646484 5.84838867 C13.69744155 8.62747442 13.53606387 11.40731797 13.375 14.1875 C13.31054688 15.14720703 13.24609375 16.10691406 13.1796875 17.09570312 C13.128125 18.02705078 13.0765625 18.95839844 13.0234375 19.91796875 C12.97106934 20.77156982 12.91870117 21.6251709 12.86474609 22.50463867 C13.0191148 25.35265773 13.81688609 27.42178077 15 30 C14.01 29.67 13.02 29.34 12 29 C11.34 25.04 10.68 21.08 10 17 C7.60621094 17.01740234 7.60621094 17.01740234 5.1640625 17.03515625 C-31.4453081 17.22587453 -31.4453081 17.22587453 -45 13 C-45.33 11.35 -45.66 9.7 -46 8 C-44.9584375 8.13277344 -43.916875 8.26554687 -42.84375 8.40234375 C-33.9949352 9.50155602 -25.19970525 10.31616293 -16.29296875 10.75390625 C-13 11 -13 11 -11.10571289 11.49560547 C-8.71148217 12.06911047 -6.47491114 12.21143672 -4.015625 12.31640625 C-2.61376953 12.37924805 -2.61376953 12.37924805 -1.18359375 12.44335938 C-0.21550781 12.48267578 0.75257812 12.52199219 1.75 12.5625 C2.73355469 12.60568359 3.71710938 12.64886719 4.73046875 12.69335938 C7.15351275 12.79922052 9.5766554 12.90130171 12 13 C11.505 11.515 11.505 11.515 11 10 C7.7 9.67 4.4 9.34 1 9 C1 8.34 1 7.68 1 7 C-3.95 6.01 -3.95 6.01 -9 5 C-9 4.67 -9 4.34 -9 4 C-7.88625 3.896875 -6.7725 3.79375 -5.625 3.6875 C-4.42875 3.460625 -3.2325 3.23375 -2 3 C-1.34 2.01 -0.68 1.02 0 0 Z " fill="#D69234" transform="translate(94,100)"/>
<path d="M0 0 C1.81966022 0.00502803 3.63932179 0.00958862 5.45898438 0.01367188 C9.8685237 0.02456735 14.27799645 0.04175916 18.6875 0.0625 C18.79707031 0.97773437 18.90664062 1.89296875 19.01953125 2.8359375 C19.17808594 4.02445312 19.33664063 5.21296875 19.5 6.4375 C19.65082031 7.62085937 19.80164063 8.80421875 19.95703125 10.0234375 C20.39449334 13.35782084 20.39449334 13.35782084 23.6875 15.0625 C25.7367094 15.51389459 25.7367094 15.51389459 27.875 15.6875 C29.133125 15.81125 30.39125 15.935 31.6875 16.0625 C31.6875 16.7225 31.6875 17.3825 31.6875 18.0625 C26.7375 18.0625 21.7875 18.0625 16.6875 18.0625 C16.6875 17.7325 16.6875 17.4025 16.6875 17.0625 C18.3375 17.0625 19.9875 17.0625 21.6875 17.0625 C21.6875 16.4025 21.6875 15.7425 21.6875 15.0625 C20.6975 14.7325 19.7075 14.4025 18.6875 14.0625 C18.6875 13.0725 18.6875 12.0825 18.6875 11.0625 C17.41072388 11.07035522 17.41072388 11.07035522 16.1081543 11.07836914 C12.8968939 11.09559062 9.68565735 11.1080364 6.47436523 11.11743164 C5.09447446 11.12240624 3.71458879 11.12918832 2.3347168 11.13793945 C-19.88717707 11.27516146 -19.88717707 11.27516146 -24.3125 9.0625 C-26.18306791 8.8349985 -28.05935958 8.65287189 -29.9375 8.5 C-30.94039062 8.41621094 -31.94328125 8.33242187 -32.9765625 8.24609375 C-34.13285156 8.15521484 -34.13285156 8.15521484 -35.3125 8.0625 C-35.3125 7.4025 -35.3125 6.7425 -35.3125 6.0625 C-36.6325 5.7325 -37.9525 5.4025 -39.3125 5.0625 C-37.71365967 5.16099243 -37.71365967 5.16099243 -36.08251953 5.26147461 C-24.45366837 5.95528404 -12.83298511 6.34986559 -1.1875 6.625 C0.56120417 6.66836838 2.30990215 6.71198715 4.05859375 6.75585938 C8.26816383 6.86094203 12.47780158 6.96269697 16.6875 7.0625 C16.6875 5.7425 16.6875 4.4225 16.6875 3.0625 C15.4814209 3.07035522 15.4814209 3.07035522 14.25097656 3.07836914 C-1.63536754 3.16788563 -17.45167498 3.10744847 -33.3125 2.0625 C-33.3125 1.7325 -33.3125 1.4025 -33.3125 1.0625 C-22.19881803 -0.06759697 -11.15768228 -0.05408919 0 0 Z " fill="#E1A044" transform="translate(86.3125,115.9375)"/>
<path d="M0 0 C-0.1135629 1.64666203 -0.24117381 3.29236082 -0.375 4.9375 C-0.44460937 5.85402344 -0.51421875 6.77054687 -0.5859375 7.71484375 C-0.72257812 8.46894531 -0.85921875 9.22304687 -1 10 C-1.66 10.33 -2.32 10.66 -3 11 C-3.495 7.04 -3.495 7.04 -4 3 C-4.69585205 3.15992432 -5.3917041 3.31984863 -6.10864258 3.48461914 C-9.20071026 4.03577635 -12.12219852 4.17674176 -15.26171875 4.24609375 C-17.06479492 4.29540039 -17.06479492 4.29540039 -18.90429688 4.34570312 C-21.40682016 4.40642517 -23.90942786 4.46377113 -26.41210938 4.51757812 C-33.49066523 4.7176653 -40.12268104 5.29381653 -47 7 C-48.03253906 7.24621094 -49.06507812 7.49242188 -50.12890625 7.74609375 C-50.93199219 7.97425781 -51.73507813 8.20242187 -52.5625 8.4375 C-53.38878906 8.66308594 -54.21507813 8.88867188 -55.06640625 9.12109375 C-55.70449219 9.41113281 -56.34257813 9.70117188 -57 10 C-57.33 10.99 -57.66 11.98 -58 13 C-59.32 13 -60.64 13 -62 13 C-62 13.66 -62 14.32 -62 15 C-66.455 15.495 -66.455 15.495 -71 16 C-71.33 18.31 -71.66 20.62 -72 23 C-70.02 23.66 -68.04 24.32 -66 25 C-66 25.66 -66 26.32 -66 27 C-68.31 26.67 -70.62 26.34 -73 26 C-73 25.34 -73 24.68 -73 24 C-73.66 24 -74.32 24 -75 24 C-75 20.7 -75 17.4 -75 14 C-74.34 14 -73.68 14 -73 14 C-73 13.34 -73 12.68 -73 12 C-68.545 11.505 -68.545 11.505 -64 11 C-64 10.34 -64 9.68 -64 9 C-62.8125 7.375 -62.8125 7.375 -61 6 C-58.3125 5.8125 -58.3125 5.8125 -56 6 C-56 5.34 -56 4.68 -56 4 C-54.71222656 3.86722656 -53.42445312 3.73445313 -52.09765625 3.59765625 C-50.41924638 3.41950101 -48.74086227 3.24110308 -47.0625 3.0625 C-46.21236328 2.97548828 -45.36222656 2.88847656 -44.48632812 2.79882812 C-43.67744141 2.71181641 -42.86855469 2.62480469 -42.03515625 2.53515625 C-41.2862915 2.456604 -40.53742676 2.37805176 -39.76586914 2.29711914 C-37.97859987 2.1719262 -37.97859987 2.1719262 -37 1 C-35.37406087 0.84180763 -33.74168915 0.74881178 -32.109375 0.68359375 C-31.09488281 0.64161865 -30.08039063 0.59964355 -29.03515625 0.55639648 C-27.40900391 0.49754272 -27.40900391 0.49754272 -25.75 0.4375 C-24.66074219 0.3950415 -23.57148437 0.35258301 -22.44921875 0.30883789 C-14.96200004 0.03163678 -7.49246914 -0.13170356 0 0 Z " fill="#F0C68E" transform="translate(109,94)"/>
<path d="M0 0 C0.495 1.98 0.495 1.98 1 4 C2.65 4.33 4.3 4.66 6 5 C5.8671875 6.86328125 5.8671875 6.86328125 5 9 C2.4453125 10.23046875 2.4453125 10.23046875 -0.875 11.1875 C-1.94492188 11.51105469 -3.01484375 11.83460938 -4.1171875 12.16796875 C-13.83762155 14.2509189 -23.717203 14.14819977 -33.6171875 14.1328125 C-35.00521868 14.13348853 -36.39324974 14.13446103 -37.78128052 14.13571167 C-40.67402283 14.13717557 -43.566734 14.13507724 -46.45947266 14.13037109 C-50.12918528 14.12468539 -53.79882455 14.12795388 -57.46853447 14.13394356 C-60.33078543 14.13759398 -63.19301962 14.13639006 -66.05527115 14.13381577 C-68.05400898 14.13284324 -70.05274752 14.13583027 -72.05148315 14.13894653 C-80.07874605 14.11862007 -88.00646217 13.73744615 -96 13 C-96 12.34 -96 11.68 -96 11 C-95.11821327 11.00333092 -95.11821327 11.00333092 -94.21861267 11.00672913 C-87.97037377 11.02925499 -81.7221468 11.04409824 -75.47387695 11.05493164 C-73.15746592 11.0598891 -70.84105789 11.06665705 -68.5246582 11.07543945 C-56.49059664 11.11984558 -44.46808933 11.08274168 -32.44140625 10.62109375 C-31.53228989 10.59048355 -30.62317352 10.55987335 -29.68650818 10.52833557 C-24.40362794 10.29400003 -19.42881507 9.6080574 -14.27207947 8.4278717 C-10.80673551 7.77528774 -7.51641051 7.86976257 -4 8 C-4 7.34 -4 6.68 -4 6 C-3.01 5.34 -2.02 4.68 -1 4 C-0.27617533 1.94074861 -0.27617533 1.94074861 0 0 Z " fill="#EAA341" transform="translate(160,148)"/>
<path d="M0 0 C12.35494709 -0.20107509 12.35494709 -0.20107509 18 1 C20 3 20 3 20.23046875 5.3125 C20.20919922 6.6428125 20.20919922 6.6428125 20.1875 8 C20.18105469 8.886875 20.17460937 9.77375 20.16796875 10.6875 C20 13 20 13 19 15 C11.40237976 15.38999191 5.15533979 14.60758587 -2 12 C-2 9.36 -2 6.72 -2 4 C-1.34 3.67 -0.68 3.34 0 3 C0 2.01 0 1.02 0 0 Z " fill="#79889E" transform="translate(125,78)"/>
<path d="M0 0 C14.45052255 0.41946364 28.99244818 2.35497212 43 6 C43 5.34 43 4.68 43 4 C45.31284456 4.14026283 47.62527591 4.28735558 49.9375 4.4375 C51.86916016 4.55931641 51.86916016 4.55931641 53.83984375 4.68359375 C57 5 57 5 58 6 C59.34747084 6.23075082 60.70377565 6.41153063 62.0625 6.5625 C63.361875 6.706875 64.66125 6.85125 66 7 C66 7.99 66 8.98 66 10 C59.07 9.505 59.07 9.505 52 9 C51.67 10.32 51.34 11.64 51 13 C48.03 12.67 45.06 12.34 42 12 C42 11.34 42 10.68 42 10 C43.32 9.67 44.64 9.34 46 9 C42.52674819 7.8422494 39.63932552 7.93133348 36 8 C38.475 8.495 38.475 8.495 41 9 C41 9.33 41 9.66 41 10 C35.23917868 10.12001711 29.68351614 10.0149136 24 9 C23.67 8.34 23.34 7.68 23 7 C25.64 6.67 28.28 6.34 31 6 C29.76765625 5.80664062 28.5353125 5.61328125 27.265625 5.4140625 C18.1699486 3.98409821 9.07782591 2.5401501 0 1 C0 0.67 0 0.34 0 0 Z " fill="#526884" transform="translate(148,118)"/>
<path d="M0 0 C0.66 0.33 1.32 0.66 2 1 C2.02690844 3.62506802 2.04679404 6.24986173 2.0625 8.875 C2.07087891 9.62136719 2.07925781 10.36773437 2.08789062 11.13671875 C2.11328125 16.7734375 2.11328125 16.7734375 1 19 C0.34 19 -0.32 19 -1 19 C-0.979375 20.27875 -0.95875 21.5575 -0.9375 22.875 C-0.875 26.75 -0.875 26.75 -2 29 C-1.979375 30.010625 -1.95875 31.02125 -1.9375 32.0625 C-1.98718538 35.19267897 -2.22847022 37.19534497 -3 40.125 C-4.84526019 47.79601021 -5.10234791 55.70778799 -2 63 C-1.34402832 63.08040527 -0.68805664 63.16081055 -0.01220703 63.24365234 C2.95137173 63.61193256 5.91312165 63.99329573 8.875 64.375 C10.42380859 64.56449219 10.42380859 64.56449219 12.00390625 64.7578125 C12.99003906 64.88671875 13.97617188 65.015625 14.9921875 65.1484375 C15.90339355 65.26364746 16.81459961 65.37885742 17.75341797 65.49755859 C20 66 20 66 22 68 C16.39565624 68.13194083 11.25036603 67.73842545 5.75 66.6875 C5.05648437 66.56955078 4.36296875 66.45160156 3.6484375 66.33007812 C-0.25026791 65.60187166 -3.1624596 64.84456402 -6 62 C-7.29024361 58.12926917 -6.92985553 54.6341835 -6.6875 50.625 C-6.64117432 49.8002417 -6.59484863 48.9754834 -6.54711914 48.12573242 C-5.96274679 38.39379032 -4.99384563 28.6972316 -4 19 C-3.34 19 -2.68 19 -2 19 C-2.020625 17.700625 -2.04125 16.40125 -2.0625 15.0625 C-2.0625 2.0625 -2.0625 2.0625 0 0 Z " fill="#46423D" transform="translate(113,66)"/>
<path d="M0 0 C0.99 0 1.98 0 3 0 C3.0825 0.78375 3.165 1.5675 3.25 2.375 C3.72806339 5.14749104 3.72806339 5.14749104 6.0625 6.3125 C6.701875 6.539375 7.34125 6.76625 8 7 C8 6.34 8 5.68 8 5 C7.01 5 6.02 5 5 5 C5 3.35 5 1.7 5 0 C9.29 0.33 13.58 0.66 18 1 C18 3.97 18 6.94 18 10 C17.34 10 16.68 10 16 10 C16 10.66 16 11.32 16 12 C15.01 12 14.02 12 13 12 C13 12.66 13 13.32 13 14 C9.7 13.67 6.4 13.34 3 13 C4.32 12.67 5.64 12.34 7 12 C7 11.34 7 10.68 7 10 C6.34 10 5.68 10 5 10 C5 9.34 5 8.68 5 8 C2.36 7.67 -0.28 7.34 -3 7 C-3 5.68 -3 4.36 -3 3 C-2.34 3 -1.68 3 -1 3 C-0.67 2.01 -0.34 1.02 0 0 Z " fill="#2A4464" transform="translate(143,102)"/>
<path d="M0 0 C4.29 0 8.58 0 13 0 C13 0.66 13 1.32 13 2 C14.299375 1.979375 15.59875 1.95875 16.9375 1.9375 C21.69382325 1.92995028 26.28388953 2.40112883 31 3 C31 3.66 31 4.32 31 5 C27.52674819 6.1577506 24.63932552 6.06866652 21 6 C21 5.34 21 4.68 21 4 C18.10200713 4.06018677 15.20903763 4.14727006 12.3125 4.25 C11.08756836 4.27126953 11.08756836 4.27126953 9.83789062 4.29296875 C5.97547715 4.44934177 3.45673767 4.75735811 0 6.59375 C-2.64655489 9.77788635 -2.89589093 12.15965636 -3.3125 16.25 C-3.52326172 18.14492188 -3.52326172 18.14492188 -3.73828125 20.078125 C-3.82464844 21.04234375 -3.91101563 22.0065625 -4 23 C-4.99 23.33 -5.98 23.66 -7 24 C-7.09706112 17.88514973 -6.77040851 12.06696699 -6 6 C-5.34 6 -4.68 6 -4 6 C-3.67 4.68 -3.34 3.36 -3 2 C-2.01 2 -1.02 2 0 2 C0 1.34 0 0.68 0 0 Z " fill="#57657F" transform="translate(121,42)"/>
<path d="M0 0 C5.55358287 -0.17630422 10.27464218 0.14539099 15.65234375 1.4921875 C19.08620441 2.2349527 22.53249358 2.48933979 26.03125 2.75390625 C28 3 28 3 29 4 C31.01594582 4.23427778 33.038474 4.41336124 35.0625 4.5625 C36.71958984 4.68818359 36.71958984 4.68818359 38.41015625 4.81640625 C39.26480469 4.87699219 40.11945313 4.93757813 41 5 C40.34 4.34 39.68 3.68 39 3 C45.06892629 2.74712807 50.16200408 3.30167391 56 5 C56 5.33 56 5.66 56 6 C53.03 6 50.06 6 47 6 C47 6.66 47 7.32 47 8 C48.134375 7.95875 49.26875 7.9175 50.4375 7.875 C55.14383562 7.85816159 59.46316004 8.82378223 64 10 C63.67 10.66 63.34 11.32 63 12 C52.49265777 11.03555796 42.22682026 9.6158227 31.90332031 7.40917969 C26.94235523 6.35265902 22.04262509 5.55965061 17 5 C17 4.34 17 3.68 17 3 C16.35933594 3.01160156 15.71867188 3.02320312 15.05859375 3.03515625 C9.91346778 3.08883119 5.06975076 2.88169578 0 2 C0 1.34 0 0.68 0 0 Z " fill="#758DAC" transform="translate(143,122)"/>
<path d="M0 0 C1.4370809 -0.05422947 2.87475462 -0.09289723 4.3125 -0.125 C5.11300781 -0.14820312 5.91351563 -0.17140625 6.73828125 -0.1953125 C9 0 9 0 12 2 C14.62531524 2.16713569 14.62531524 2.16713569 17 2 C17 4.64 17 7.28 17 10 C13.71303767 10.79953138 12.28976808 11.09658936 9 10 C7.27467737 9.77991948 5.54465967 9.59496906 3.8125 9.4375 C2.91144531 9.35371094 2.01039063 9.26992187 1.08203125 9.18359375 C0.39496094 9.12300781 -0.29210937 9.06242187 -1 9 C-1 8.34 -1 7.68 -1 7 C-1.99 7 -2.98 7 -4 7 C-3.6875 5.0625 -3.6875 5.0625 -3 3 C-2.01 2.67 -1.02 2.34 0 2 C0 1.34 0 0.68 0 0 Z " fill="#637C9D" transform="translate(220,114)"/>
<path d="M0 0 C1.65 0.33 3.3 0.66 5 1 C5 3.64 5 6.28 5 9 C8.63 9.99 12.26 10.98 16 12 C16 12.33 16 12.66 16 13 C13.91673869 13.02709444 11.83337559 13.04643873 9.75 13.0625 C8.00976562 13.07990234 8.00976562 13.07990234 6.234375 13.09765625 C3.59022872 13.01782092 1.50173909 12.78643778 -1 12 C-1 11.34 -1 10.68 -1 10 C-2.32 10 -3.64 10 -5 10 C-5 11.65 -5 13.3 -5 15 C-4.34 15 -3.68 15 -3 15 C-3 15.66 -3 16.32 -3 17 C-4.65 16.67 -6.3 16.34 -8 16 C-8.28329101 12.29203542 -8.44731303 8.69851501 -8 5 C-5.17008851 2.3230567 -3.86319085 2 0 2 C0 1.34 0 0.68 0 0 Z " fill="#F3AD45" transform="translate(42,124)"/>
<path d="M0 0 C0.99 0 1.98 0 3 0 C3.09706112 6.11485027 2.77040851 11.93303301 2 18 C1.34 18 0.68 18 0 18 C0.01160156 18.61488281 0.02320313 19.22976562 0.03515625 19.86328125 C0.04417969 20.67152344 0.05320312 21.47976562 0.0625 22.3125 C0.07410156 23.11300781 0.08570313 23.91351563 0.09765625 24.73828125 C0 27 0 27 -1 30 C-1.66 30 -2.32 30 -3 30 C-3.33 30.99 -3.66 31.98 -4 33 C-4.66 33 -5.32 33 -6 33 C-6 33.66 -6 34.32 -6 35 C-9.96 35 -13.92 35 -18 35 C-18 34.34 -18 33.68 -18 33 C-20.97 33 -23.94 33 -27 33 C-26.67 32.34 -26.34 31.68 -26 31 C-19.07 31 -12.14 31 -5 31 C-2.60849064 20.67302775 -1.08366849 10.53070796 0 0 Z " fill="#5C6D88" transform="translate(260,120)"/>
<path d="M0 0 C3.96 0 7.92 0 12 0 C12 0.66 12 1.32 12 2 C9.69 2 7.38 2 5 2 C4.67 4.31 4.34 6.62 4 9 C4.99 9 5.98 9 7 9 C7.02696365 10.79158489 7.04637917 12.58328473 7.0625 14.375 C7.07410156 15.37273437 7.08570313 16.37046875 7.09765625 17.3984375 C7 20 7 20 6 22 C-2.64666579 25.95438326 -11.67603916 26.17195829 -21 26 C-20.67 25.34 -20.34 24.68 -20 24 C-17.03 24 -14.06 24 -11 24 C-11 23.34 -11 22.68 -11 22 C-4.07 21.01 -4.07 21.01 3 20 C3.66 18.02 4.32 16.04 5 14 C4.34 14 3.68 14 3 14 C3 13.34 3 12.68 3 12 C0.525 11.505 0.525 11.505 -2 11 C-2 9.68 -2 8.36 -2 7 C-0.68 6.67 0.64 6.34 2 6 C2 4.35 2 2.7 2 1 C1.34 0.67 0.68 0.34 0 0 Z " fill="#E6C19C" transform="translate(163,141)"/>
<path d="M0 0 C0 0.99 0 1.98 0 3 C0.92683594 3.13277344 1.85367188 3.26554688 2.80859375 3.40234375 C4.00613281 3.57894531 5.20367187 3.75554687 6.4375 3.9375 C7.63246094 4.11152344 8.82742187 4.28554687 10.05859375 4.46484375 C13 5 13 5 14 6 C16.2182262 6.2178328 18.44274877 6.37203664 20.66796875 6.5 C21.67661736 6.5609082 21.67661736 6.5609082 22.7056427 6.62304688 C24.86602707 6.75310482 27.02669966 6.87706081 29.1875 7 C31.33040921 7.12343003 33.4731983 7.24827305 35.61579895 7.37695312 C37.57333394 7.49432575 39.53116875 7.60666585 41.48901367 7.71875 C44.71051739 7.97681079 47.82361151 8.4142094 51 9 C50.67 9.66 50.34 10.32 50 11 C7.30334257 10.20073482 7.30334257 10.20073482 -3 5 C-3.8125 2.875 -3.8125 2.875 -4 1 C-2 0 -2 0 0 0 Z " fill="#E39C40" transform="translate(44,144)"/>
<path d="M0 0 C3.5210863 0.14008671 7.04179712 0.28810982 10.5625 0.4375 C11.55314453 0.47681641 12.54378906 0.51613281 13.56445312 0.55664062 C14.53447266 0.59853516 15.50449219 0.64042969 16.50390625 0.68359375 C17.38892822 0.72025146 18.2739502 0.75690918 19.18579102 0.79467773 C22 1 22 1 25.36328125 1.5 C29.15943418 2.02192006 32.85395513 2.20874573 36.68359375 2.31640625 C37.38396255 2.33718735 38.08433136 2.35796844 38.80592346 2.37937927 C41.01636106 2.44412465 43.22690485 2.50340608 45.4375 2.5625 C46.94727607 2.60575681 48.45704188 2.64937323 49.96679688 2.69335938 C53.64442196 2.79972748 57.32216291 2.90120002 61 3 C61 3.33 61 3.66 61 4 C48.625 4.495 48.625 4.495 36 5 C36 5.33 36 5.66 36 6 C9.82345757 5.42528455 9.82345757 5.42528455 0 2 C0 1.34 0 0.68 0 0 Z " fill="#EDA943" transform="translate(46,142)"/>
<path d="M0 0 C1.61068359 0.20109375 1.61068359 0.20109375 3.25390625 0.40625 C3.98883301 0.49777344 4.72375977 0.58929688 5.48095703 0.68359375 C7.21929337 0.90193877 8.95722883 1.12349102 10.69482422 1.34765625 C26.79895852 3.41194063 42.76846285 4.61894835 59 5 C59 5.33 59 5.66 59 6 C50.79677174 7.007414 42.63022338 7.1103197 34.375 7.125 C33.29541016 7.12951172 32.21582031 7.13402344 31.10351562 7.13867188 C30.08708984 7.13673828 29.07066406 7.13480469 28.0234375 7.1328125 C27.10481934 7.13168457 26.18620117 7.13055664 25.23974609 7.12939453 C23 7 23 7 21 6 C17.64663634 5.76784405 14.30011977 5.60559473 10.94140625 5.48242188 C7.1821478 5.29895899 4.20437202 5.07193688 1 3 C1.66 2.67 2.32 2.34 3 2 C2.01 1.34 1.02 0.68 0 0 Z " fill="#E59F3F" transform="translate(51,134)"/>
<path d="M0 0 C0.99 0 1.98 0 3 0 C3.33 1.65 3.66 3.3 4 5 C4.99 5 5.98 5 7 5 C7.33 4.34 7.66 3.68 8 3 C7.01 2.67 6.02 2.34 5 2 C5.33 1.34 5.66 0.68 6 0 C6.99 0 7.98 0 9 0 C9 0.66 9 1.32 9 2 C9.66 2 10.32 2 11 2 C11 3.65 11 5.3 11 7 C11.66 7 12.32 7 13 7 C12.67 5.35 12.34 3.7 12 2 C13.65 2 15.3 2 17 2 C17 4.97 17 7.94 17 11 C11.21408489 11.10477512 5.70690634 10.99250545 0 10 C0 6.7 0 3.4 0 0 Z " fill="#5A7496" transform="translate(165,105)"/>
<path d="M0 0 C1.65 0 3.3 0 5 0 C5 0.99 5 1.98 5 3 C3.68 3.33 2.36 3.66 1 4 C1 4.66 1 5.32 1 6 C0.34 6 -0.32 6 -1 6 C-1 7.98 -1 9.96 -1 12 C2.63 12.33 6.26 12.66 10 13 C10 14.98 10 16.96 10 19 C10.99902344 19.18175781 11.99804688 19.36351562 13.02734375 19.55078125 C14.31769531 19.80214844 15.60804687 20.05351562 16.9375 20.3125 C18.22527344 20.55613281 19.51304688 20.79976562 20.83984375 21.05078125 C21.88269531 21.36402344 22.92554688 21.67726562 24 22 C24.33 22.99 24.66 23.98 25 25 C18.66606918 25.34548714 13.89738492 24.29342747 8 22 C8 21.34 8 20.68 8 20 C7.34 20 6.68 20 6 20 C6 18.35 6 16.7 6 15 C4.88625 14.87625 3.7725 14.7525 2.625 14.625 C-1 14 -1 14 -3 12 C-3.23046875 10.125 -3.23046875 10.125 -3.1875 8 C-3.18105469 7.29875 -3.17460938 6.5975 -3.16796875 5.875 C-3 4 -3 4 -2 2 C-1.34 2 -0.68 2 0 2 C0 1.34 0 0.68 0 0 Z " fill="#DBBA8C" transform="translate(39,141)"/>
<path d="M0 0 C0.495 1.98 0.495 1.98 1 4 C3.475 4.495 3.475 4.495 6 5 C5.67 6.32 5.34 7.64 5 9 C-9.3600916 12.28053817 -23.24938831 13.25143088 -38 13 C-34.57302189 10.71534793 -32.98559899 10.69299638 -28.9375 10.5 C-24.74998008 10.244096 -20.78310447 9.8469277 -16.6875 8.9375 C-12.35326695 7.9798544 -8.43127512 7.8358787 -4 8 C-4 7.34 -4 6.68 -4 6 C-3.01 5.34 -2.02 4.68 -1 4 C-0.27617533 1.94074861 -0.27617533 1.94074861 0 0 Z " fill="#F4AD46" transform="translate(160,148)"/>
<path d="M0 0 C6.75381462 -0.10130722 13.32796347 -0.13298734 20 1 C20.33 1.33 20.66 1.66 21 2 C22.39812257 2.28318283 23.80708911 2.5134386 25.21875 2.71875 C26.06824219 2.84636719 26.91773438 2.97398437 27.79296875 3.10546875 C28.68628906 3.23566406 29.57960937 3.36585938 30.5 3.5 C32.26096985 3.75664929 34.02142337 4.01687544 35.78125 4.28125 C36.56564453 4.39533203 37.35003906 4.50941406 38.15820312 4.62695312 C40 5 40 5 41 6 C43.85528607 6.400383 46.69736487 6.7518227 49.5625 7.0625 C50.36880859 7.15337891 51.17511719 7.24425781 52.00585938 7.33789062 C54.00347377 7.56247449 56.0016856 7.78173236 58 8 C58 8.66 58 9.32 58 10 C60.31 10 62.62 10 65 10 C65 10.66 65 11.32 65 12 C59.72 11.67 54.44 11.34 49 11 C49 10.34 49 9.68 49 9 C48.38511719 9.01160156 47.77023438 9.02320313 47.13671875 9.03515625 C46.32847656 9.04417969 45.52023438 9.05320313 44.6875 9.0625 C43.48673828 9.07990234 43.48673828 9.07990234 42.26171875 9.09765625 C40 9 40 9 37 8 C37 7.34 37 6.68 37 6 C35.700625 6.020625 34.40125 6.04125 33.0625 6.0625 C31.70834367 6.08399454 30.35243917 6.07148199 29 6 C28.67 5.67 28.34 5.34 28 5 C25.67013877 4.79031249 23.33555964 4.63184611 21 4.5 C14.11111111 4.11111111 14.11111111 4.11111111 13 3 C10.81980521 2.60333773 8.6303537 2.25684763 6.4375 1.9375 C4.64119141 1.67259766 4.64119141 1.67259766 2.80859375 1.40234375 C1.88175781 1.26957031 0.95492187 1.13679687 0 1 C0 0.67 0 0.34 0 0 Z " fill="#524B40" transform="translate(138,135)"/>
<path d="M0 0 C-1.39025391 0.38091797 -1.39025391 0.38091797 -2.80859375 0.76953125 C-4.00613281 1.11371094 -5.20367187 1.45789063 -6.4375 1.8125 C-7.63246094 2.14894531 -8.82742187 2.48539062 -10.05859375 2.83203125 C-11.02925781 3.21746094 -11.99992187 3.60289063 -13 4 C-13.33 4.99 -13.66 5.98 -14 7 C-15.32 7 -16.64 7 -18 7 C-18 7.66 -18 8.32 -18 9 C-22.455 9.495 -22.455 9.495 -27 10 C-27.33 12.31 -27.66 14.62 -28 17 C-26.02 17.66 -24.04 18.32 -22 19 C-22 19.66 -22 20.32 -22 21 C-24.31 20.67 -26.62 20.34 -29 20 C-29 19.34 -29 18.68 -29 18 C-29.66 18 -30.32 18 -31 18 C-31 14.7 -31 11.4 -31 8 C-30.34 8 -29.68 8 -29 8 C-29 7.34 -29 6.68 -29 6 C-28.31292969 6.04640625 -27.62585937 6.0928125 -26.91796875 6.140625 C-26.01691406 6.17671875 -25.11585937 6.2128125 -24.1875 6.25 C-22.84751953 6.31960937 -22.84751953 6.31960937 -21.48046875 6.390625 C-18.19866783 5.87380596 -17.91954485 4.60301916 -16 2 C-13.22265625 0.91796875 -13.22265625 0.91796875 -10.0625 0.1875 C-9.02222656 -0.06644531 -7.98195313 -0.32039063 -6.91015625 -0.58203125 C-4.16018577 -0.97699345 -2.58360426 -0.91515621 0 0 Z " fill="#EBB25C" transform="translate(65,100)"/>
<path d="M0 0 C3.96 0.33 7.92 0.66 12 1 C11.67 2.65 11.34 4.3 11 6 C11.99 5.67 12.98 5.34 14 5 C14.33 4.34 14.66 3.68 15 3 C15.99 3 16.98 3 18 3 C18 5.31 18 7.62 18 10 C16.948125 9.814375 15.89625 9.62875 14.8125 9.4375 C11.42880118 9.04920669 9.23574112 9.11752515 6 10 C5.67 8.35 5.34 6.7 5 5 C2.525 6.485 2.525 6.485 0 8 C0.33 6.68 0.66 5.36 1 4 C1.66 4 2.32 4 3 4 C3 3.01 3 2.02 3 1 C2.01 0.67 1.02 0.34 0 0 Z " fill="#5A7393" transform="translate(194,110)"/>
<path d="M0 0 C3.625 -0.1875 3.625 -0.1875 7 0 C7.33 0.66 7.66 1.32 8 2 C7.0409375 2.4021875 7.0409375 2.4021875 6.0625 2.8125 C3.66868314 3.88667752 3.66868314 3.88667752 3 7 C4.258125 6.87625 5.51625 6.7525 6.8125 6.625 C7.87404297 6.52058594 7.87404297 6.52058594 8.95703125 6.4140625 C11.29988142 6.07334609 11.29988142 6.07334609 14 4 C13.9592334 4.60996826 13.9184668 5.21993652 13.87646484 5.84838867 C13.69744155 8.62747442 13.53606387 11.40731797 13.375 14.1875 C13.31054688 15.14720703 13.24609375 16.10691406 13.1796875 17.09570312 C13.128125 18.02705078 13.0765625 18.95839844 13.0234375 19.91796875 C12.97106934 20.77156982 12.91870117 21.6251709 12.86474609 22.50463867 C13.0191148 25.35265773 13.81688609 27.42178077 15 30 C14.01 29.67 13.02 29.34 12 29 C10.74566542 25.23699626 10.89304578 21.72789091 10.9375 17.8125 C10.94201172 17.06291016 10.94652344 16.31332031 10.95117188 15.54101562 C10.96293646 13.69397617 10.98087135 11.84697787 11 10 C7.7 9.67 4.4 9.34 1 9 C1 8.34 1 7.68 1 7 C-2.3 6.34 -5.6 5.68 -9 5 C-9 4.67 -9 4.34 -9 4 C-7.88625 3.896875 -6.7725 3.79375 -5.625 3.6875 C-4.42875 3.460625 -3.2325 3.23375 -2 3 C-1.34 2.01 -0.68 1.02 0 0 Z " fill="#BB8A42" transform="translate(94,100)"/>
<path d="M0 0 C0.99 0 1.98 0 3 0 C3 2.64 3 5.28 3 8 C4.65 7.67 6.3 7.34 8 7 C8 6.34 8 5.68 8 5 C7.01 4.67 6.02 4.34 5 4 C5 3.34 5 2.68 5 2 C6.65 2 8.3 2 10 2 C11 5 11 5 10.0625 7.1875 C9.711875 7.785625 9.36125 8.38375 9 9 C11.97 9.495 11.97 9.495 15 10 C14.67 9.01 14.34 8.02 14 7 C14.33 6.34 14.66 5.68 15 5 C14.01 4.67 13.02 4.34 12 4 C13.65 3.67 15.3 3.34 17 3 C17 5.97 17 8.94 17 12 C13.04 12 9.08 12 5 12 C5 11.34 5 10.68 5 10 C3.35 10 1.7 10 0 10 C0 6.7 0 3.4 0 0 Z " fill="#486183" transform="translate(122,97)"/>
<path d="M0 0 C1.59884033 0.09849243 1.59884033 0.09849243 3.22998047 0.19897461 C14.85883163 0.89278404 26.47951489 1.28736559 38.125 1.5625 C39.87370417 1.60586838 41.62240215 1.64948715 43.37109375 1.69335938 C47.58066383 1.79844203 51.79030158 1.90019697 56 2 C56 2.33 56 2.66 56 3 C43.625 3.495 43.625 3.495 31 4 C33.31 4.33 35.62 4.66 38 5 C38 5.33 38 5.66 38 6 C19.71398747 6.35699374 19.71398747 6.35699374 15 4 C13.12943209 3.7724985 11.25314042 3.59037189 9.375 3.4375 C8.37210938 3.35371094 7.36921875 3.26992187 6.3359375 3.18359375 C5.17964844 3.09271484 5.17964844 3.09271484 4 3 C4 2.34 4 1.68 4 1 C2.68 0.67 1.36 0.34 0 0 Z " fill="#DE9B3A" transform="translate(47,121)"/>
<path d="M0 0 C3.3 0 6.6 0 10 0 C10 0.66 10 1.32 10 2 C11.299375 1.95875 12.59875 1.9175 13.9375 1.875 C18.83591302 1.85944948 23.28176811 2.7507282 28 4 C28 4.33 28 4.66 28 5 C23.71 5 19.42 5 15 5 C15.33 5.66 15.66 6.32 16 7 C10.08739655 7.25706972 4.76081841 6.2982126 -1 5 C-0.67 3.35 -0.34 1.7 0 0 Z " fill="#7C93B1" transform="translate(120,111)"/>
<path d="M0 0 C0.66 0.33 1.32 0.66 2 1 C2.02690844 3.62506802 2.04679404 6.24986173 2.0625 8.875 C2.07087891 9.62136719 2.07925781 10.36773437 2.08789062 11.13671875 C2.11328125 16.7734375 2.11328125 16.7734375 1 19 C0.34 19 -0.32 19 -1 19 C-0.938125 20.794375 -0.938125 20.794375 -0.875 22.625 C-0.86148292 26.42329953 -1.57990247 29.44975618 -3 33 C-3.33 33 -3.66 33 -4 33 C-4 28.38 -4 23.76 -4 19 C-3.34 19 -2.68 19 -2 19 C-2.020625 17.700625 -2.04125 16.40125 -2.0625 15.0625 C-2.0625 2.0625 -2.0625 2.0625 0 0 Z " fill="#6D7C92" transform="translate(113,66)"/>
<path d="M0 0 C13.24515842 0.38447485 25.99903144 2.54095771 39 5 C38.01 5.99 37.02 6.98 36 8 C38.475 8.495 38.475 8.495 41 9 C41 9.33 41 9.66 41 10 C35.23917868 10.12001711 29.68351614 10.0149136 24 9 C23.67 8.34 23.34 7.68 23 7 C25.64 6.67 28.28 6.34 31 6 C29.76765625 5.80664062 28.5353125 5.61328125 27.265625 5.4140625 C18.1699486 3.98409821 9.07782591 2.5401501 0 1 C0 0.67 0 0.34 0 0 Z " fill="#4F6582" transform="translate(148,118)"/>
<path d="M0 0 C1.14662109 0.18175781 1.14662109 0.18175781 2.31640625 0.3671875 C9.69530941 1.52152855 17.07739287 2.54067819 24.4921875 3.4375 C28.11108315 4.01781289 31.48867091 4.96114524 35 6 C37.32787927 6.36950465 39.66045145 6.71352467 42 7 C42 7.33 42 7.66 42 8 C39.52076199 8.02685095 37.0418116 8.04676547 34.5625 8.0625 C33.85544922 8.07087891 33.14839844 8.07925781 32.41992188 8.08789062 C30.61306441 8.09653588 28.80612397 8.05220011 27 8 C26.67 7.67 26.34 7.34 26 7 C22.4751771 6.71272465 18.95016645 6.55094075 15.41796875 6.37890625 C12.35490129 6.03934334 10.57655735 5.60304702 8 4 C8.33 3.34 8.66 2.68 9 2 C6.36 2 3.72 2 1 2 C0.67 1.34 0.34 0.68 0 0 Z " fill="#B28C4F" transform="translate(109,130)"/>
<path d="M0 0 C0.33 0 0.66 0 1 0 C1 2.31 1 4.62 1 7 C1.77085937 7.06058594 2.54171875 7.12117188 3.3359375 7.18359375 C4.84027344 7.30927734 4.84027344 7.30927734 6.375 7.4375 C7.87160156 7.55931641 7.87160156 7.55931641 9.3984375 7.68359375 C12 8 12 8 14 9 C17.43716155 9.46953754 20.87463023 9.86858485 24.32226562 10.25 C29.89825283 10.89825283 29.89825283 10.89825283 31 12 C33.58022142 12.28221172 36.16030185 12.44820197 38.75 12.62109375 C39.4925 12.74613281 40.235 12.87117188 41 13 C41.495 13.99 41.495 13.99 42 15 C37.05 14.67 32.1 14.34 27 14 C27 13.34 27 12.68 27 12 C26.14619751 11.970271 26.14619751 11.970271 25.27514648 11.93994141 C22.66218288 11.84388242 20.04993198 11.73453593 17.4375 11.625 C16.54224609 11.5940625 15.64699219 11.563125 14.72460938 11.53125 C9.49274255 11.30127783 4.96655124 10.67595556 0 9 C0 6.03 0 3.06 0 0 Z " fill="#A4B8CD" transform="translate(128,52)"/>
<path d="M0 0 C16.07438061 0.75784921 16.07438061 0.75784921 23.2734375 2.390625 C27.03963191 3.23235326 30.83070427 3.92269045 34.625 4.625 C36.03387475 4.88791057 37.44273059 5.1509225 38.8515625 5.4140625 C40.41003906 5.70410156 40.41003906 5.70410156 42 6 C42 6.66 42 7.32 42 8 C32.13118053 6.99324795 22.34473332 5.65376735 12.5625 4 C11.54986084 3.8340332 10.53722168 3.66806641 9.49389648 3.49707031 C8.54844971 3.33303711 7.60300293 3.16900391 6.62890625 3 C5.78400635 2.855625 4.93910645 2.71125 4.06860352 2.5625 C2 2 2 2 0 0 Z " fill="#839BB9" transform="translate(149,116)"/>
<path d="M0 0 C0.99 0 1.98 0 3 0 C3.0825 0.78375 3.165 1.5675 3.25 2.375 C3.72806339 5.14749104 3.72806339 5.14749104 6.0625 6.3125 C6.701875 6.539375 7.34125 6.76625 8 7 C8 6.34 8 5.68 8 5 C7.01 5 6.02 5 5 5 C5 3.35 5 1.7 5 0 C6.65 0 8.3 0 10 0 C10.1953125 6.0546875 10.1953125 6.0546875 10 8 C9.34 8.66 8.68 9.32 8 10 C7.01 10 6.02 10 5 10 C5 9.34 5 8.68 5 8 C2.36 7.67 -0.28 7.34 -3 7 C-3 5.68 -3 4.36 -3 3 C-2.34 3 -1.68 3 -1 3 C-0.67 2.01 -0.34 1.02 0 0 Z " fill="#6680A0" transform="translate(143,102)"/>
<path d="M0 0 C8.94428987 -0.58051881 17.29836524 1.18625975 26 3 C26 3.99 26 4.98 26 6 C19.84765625 6.09765625 19.84765625 6.09765625 18 6 C17.67 5.67 17.34 5.34 17 5 C15.66197814 4.77486899 14.31426977 4.60639193 12.96484375 4.46484375 C12.15595703 4.37783203 11.34707031 4.29082031 10.51367188 4.20117188 C9.66353516 4.11416016 8.81339844 4.02714844 7.9375 3.9375 C7.08349609 3.84662109 6.22949219 3.75574219 5.34960938 3.66210938 C3.23348465 3.43749278 1.11679106 3.21824773 -1 3 C-0.67 2.01 -0.34 1.02 0 0 Z " fill="#65748E" transform="translate(206,146)"/>
<path d="M0 0 C1.65 0.33 3.3 0.66 5 1 C4.67 2.65 4.34 4.3 4 6 C1.36 6 -1.28 6 -4 6 C-4.33 8.97 -4.66 11.94 -5 15 C-4.34 15 -3.68 15 -3 15 C-3 15.66 -3 16.32 -3 17 C-4.65 16.67 -6.3 16.34 -8 16 C-8.28329101 12.29203542 -8.44731303 8.69851501 -8 5 C-5.17008851 2.3230567 -3.86319085 2 0 2 C0 1.34 0 0.68 0 0 Z " fill="#F0C58D" transform="translate(42,124)"/>
<path d="M0 0 C6.11090483 -0.09945415 11.97403427 -0.0712828 18 1 C18.33 2.98 18.66 4.96 19 7 C16.69 7 14.38 7 12 7 C12 6.01 12 5.02 12 4 C8.04 3.67 4.08 3.34 0 3 C0 2.01 0 1.02 0 0 Z " fill="#BCD1E2" transform="translate(125,78)"/>
<path d="M0 0 C1.17949219 0.01804687 2.35898438 0.03609375 3.57421875 0.0546875 C4.92966797 0.08949219 4.92966797 0.08949219 6.3125 0.125 C6.1989371 1.77166203 6.07132619 3.41736082 5.9375 5.0625 C5.86789063 5.97902344 5.79828125 6.89554687 5.7265625 7.83984375 C5.58992188 8.59394531 5.45328125 9.34804687 5.3125 10.125 C4.3225 10.62 4.3225 10.62 3.3125 11.125 C2.9825 8.485 2.6525 5.845 2.3125 3.125 C1.30123047 3.37056641 1.30123047 3.37056641 0.26953125 3.62109375 C-3.20117906 4.2125358 -6.48072124 4.22039046 -10 4.1875 C-11.25425781 4.17847656 -12.50851563 4.16945313 -13.80078125 4.16015625 C-14.75339844 4.14855469 -15.70601563 4.13695313 -16.6875 4.125 C-16.6875 3.795 -16.6875 3.465 -16.6875 3.125 C-15.594375 3.00125 -14.50125 2.8775 -13.375 2.75 C-8.21346272 1.87516317 -5.49295177 -0.10877132 0 0 Z " fill="#E9BF83" transform="translate(102.6875,93.875)"/>
<path d="M0 0 C7.12944208 -0.24584283 13.84245 0.55315997 20.87988281 1.67041016 C23.26904489 2.04182526 25.66143094 2.38645498 28.0546875 2.73046875 C29.78653395 2.98646815 31.51830553 3.24297458 33.25 3.5 C34.08450684 3.61835205 34.91901367 3.7367041 35.77880859 3.85864258 C41.77250465 4.77250465 41.77250465 4.77250465 44 7 C38.53663948 7.2015174 33.74851103 7.09865562 28.453125 5.5703125 C25.04398225 4.7777411 21.59692082 4.40223961 18.125 4 C12.01134996 3.28775764 6.00557159 2.3570282 0 1 C0 0.67 0 0.34 0 0 Z " fill="#8FA5C0" transform="translate(137,118)"/>
<path d="M0 0 C2.97 0 5.94 0 9 0 C7.02 0.99 7.02 0.99 5 2 C4.67 2.99 4.34 3.98 4 5 C4.99 5 5.98 5 7 5 C7 5.99 7 6.98 7 8 C7.66 8.66 8.32 9.32 9 10 C5.7 9.67 2.4 9.34 -1 9 C-1 8.34 -1 7.68 -1 7 C-1.99 7 -2.98 7 -4 7 C-3.6875 5.0625 -3.6875 5.0625 -3 3 C-2.01 2.67 -1.02 2.34 0 2 C0 1.34 0 0.68 0 0 Z " fill="#3A5373" transform="translate(220,114)"/>
<path d="M0 0 C1.4540625 0.0309375 1.4540625 0.0309375 2.9375 0.0625 C2.9375 2.0425 2.9375 4.0225 2.9375 6.0625 C-4.03919157 6.45575819 -9.57906189 5.69346039 -16.0625 3.0625 C-16.0625 2.4025 -16.0625 1.7425 -16.0625 1.0625 C-14.78052734 1.07990234 -14.78052734 1.07990234 -13.47265625 1.09765625 C-11.81556641 1.11119141 -11.81556641 1.11119141 -10.125 1.125 C-8.47177734 1.14240234 -8.47177734 1.14240234 -6.78515625 1.16015625 C-3.46581226 1.041098 -3.44345646 0.07027462 0 0 Z " fill="#D3E5F5" transform="translate(140.0625,86.9375)"/>
<path d="M0 0 C0.66 0 1.32 0 2 0 C2 2.64 2 5.28 2 8 C1.34 8 0.68 8 0 8 C0.01160156 8.61746094 0.02320313 9.23492187 0.03515625 9.87109375 C0.09699663 15.67525544 -0.25721044 21.24338088 -1 27 C-1.66 27 -2.32 27 -3 27 C-4.1577506 23.52674819 -4.06866652 20.63932552 -4 17 C-3.34 17 -2.68 17 -2 17 C-2.01160156 16.43152344 -2.02320313 15.86304687 -2.03515625 15.27734375 C-2.09218101 10.39765353 -1.9002286 5.80121922 -1 1 C-0.67 0.67 -0.34 0.34 0 0 Z " fill="#77869F" transform="translate(266,93)"/>
<path d="M0 0 C5.56297226 -0.17660229 10.28849241 0.15162201 15.67578125 1.49609375 C18.16576043 2.03593798 20.58693053 2.28881419 23.125 2.5 C27.31954235 2.86046848 31.00189496 3.6962701 35 5 C35 5.33 35 5.66 35 6 C28.8894576 6.11269443 23.04829486 5.89604368 17 5 C17 4.34 17 3.68 17 3 C16.35933594 3.01160156 15.71867188 3.02320312 15.05859375 3.03515625 C9.91346778 3.08883119 5.06975076 2.88169578 0 2 C0 1.34 0 0.68 0 0 Z " fill="#8FA7C4" transform="translate(143,122)"/>
<path d="M0 0 C5.61 0.33 11.22 0.66 17 1 C17 1.66 17 2.32 17 3 C19.97 3 22.94 3 26 3 C26 3.66 26 4.32 26 5 C18.11876761 5.27653447 7.17946902 5.58973451 0 2 C0 1.34 0 0.68 0 0 Z " fill="#72819B" transform="translate(208,56)"/>
<path d="M0 0 C4.10415117 -0.02944154 8.20827456 -0.04694527 12.3125 -0.0625 C13.46041016 -0.07087891 14.60832031 -0.07925781 15.79101562 -0.08789062 C22.92131349 -0.10808977 29.91344572 0.20281881 37 1 C37 1.33 37 1.66 37 2 C24.92892288 4.74342662 12.13371727 2.43503309 0 1 C0 0.67 0 0.34 0 0 Z " fill="#EBA645" transform="translate(66,124)"/>
<path d="M0 0 C0.66 0.33 1.32 0.66 2 1 C1.01 7.6 0.02 14.2 -1 21 C-1.99 21.33 -2.98 21.66 -4 22 C-4.09706112 15.88514973 -3.77040851 10.06696699 -3 4 C-2.34 4 -1.68 4 -1 4 C-0.67 2.68 -0.34 1.36 0 0 Z " fill="#828FA6" transform="translate(118,44)"/>
<path d="M0 0 C1.65 0 3.3 0 5 0 C5 2.97 5 5.94 5 9 C1.7 9 -1.6 9 -5 9 C-4.34 8.67 -3.68 8.34 -3 8 C-3.33 7.01 -3.66 6.02 -4 5 C-3.01 4.34 -2.02 3.68 -1 3 C-1 3.66 -1 4.32 -1 5 C-0.34 5 0.32 5 1 5 C0.67 3.35 0.34 1.7 0 0 Z " fill="#395171" transform="translate(177,107)"/>
<path d="M0 0 C6.11485027 -0.09706112 11.93303301 0.22959149 18 1 C18 1.66 18 2.32 18 3 C20.31 3 22.62 3 25 3 C25 3.66 25 4.32 25 5 C19.72 4.67 14.44 4.34 9 4 C9 3.34 9 2.68 9 2 C6.03 2 3.06 2 0 2 C0 1.34 0 0.68 0 0 Z " fill="#6E809A" transform="translate(178,142)"/>
<path d="M0 0 C1.65 0 3.3 0 5 0 C5 0.99 5 1.98 5 3 C3.68 3.33 2.36 3.66 1 4 C1 4.66 1 5.32 1 6 C0.34 6 -0.32 6 -1 6 C-1 7.98 -1 9.96 -1 12 C1.31 12.33 3.62 12.66 6 13 C6 13.66 6 14.32 6 15 C-0.75 14.25 -0.75 14.25 -3 12 C-3.23046875 10.125 -3.23046875 10.125 -3.1875 8 C-3.18105469 7.29875 -3.17460938 6.5975 -3.16796875 5.875 C-3 4 -3 4 -2 2 C-1.34 2 -0.68 2 0 2 C0 1.34 0 0.68 0 0 Z " fill="#EAC8A0" transform="translate(39,141)"/>
<path d="M0 0 C3.5210863 0.14008671 7.04179712 0.28810982 10.5625 0.4375 C11.55314453 0.47681641 12.54378906 0.51613281 13.56445312 0.55664062 C18.77598637 0.78172346 23.85353238 1.14105239 29 2 C29 2.33 29 2.66 29 3 C24.05 3 19.1 3 14 3 C16.97 3.495 16.97 3.495 20 4 C20 4.33 20 4.66 20 5 C12.91923749 5.40850553 6.80074041 3.90420731 0 2 C0 1.34 0 0.68 0 0 Z " fill="#E39E3C" transform="translate(46,142)"/>
<path d="M0 0 C0 0.66 0 1.32 0 2 C-1.04800781 2.24234375 -2.09601562 2.4846875 -3.17578125 2.734375 C-4.5548842 3.0721145 -5.93377999 3.41070068 -7.3125 3.75 C-8.00279297 3.90726562 -8.69308594 4.06453125 -9.40429688 4.2265625 C-13.687777 5.30260582 -15.64506805 6.28168639 -18 10 C-20.6875 10.25 -20.6875 10.25 -23 10 C-23.33 9.34 -23.66 8.68 -24 8 C-22.35 8 -20.7 8 -19 8 C-19 7.34 -19 6.68 -19 6 C-17.8125 4.375 -17.8125 4.375 -16 3 C-13.3125 2.8125 -13.3125 2.8125 -11 3 C-11 2.34 -11 1.68 -11 1 C-7.27569643 0.30710631 -3.78916254 -0.11144596 0 0 Z " fill="#F6CE9B" transform="translate(64,97)"/>
<path d="M0 0 C1.32 0 2.64 0 4 0 C4 0.66 4 1.32 4 2 C3.01 2 2.02 2 1 2 C1 4.97 1 7.94 1 11 C2.98 11.66 4.96 12.32 7 13 C7 13.66 7 14.32 7 15 C4.69 14.67 2.38 14.34 0 14 C0 13.34 0 12.68 0 12 C-0.66 12 -1.32 12 -2 12 C-2 8.7 -2 5.4 -2 2 C-1.34 2 -0.68 2 0 2 C0 1.34 0 0.68 0 0 Z " fill="#D5B286" transform="translate(36,106)"/>
<path d="M0 0 C6.6 0 13.2 0 20 0 C20 1.32 20 2.64 20 4 C16.04 4 12.08 4 8 4 C8 3.34 8 2.68 8 2 C5.03 2 2.06 2 -1 2 C-0.67 1.34 -0.34 0.68 0 0 Z " fill="#73809B" transform="translate(234,151)"/>
<path d="M0 0 C6.11485027 -0.09706112 11.93303301 0.22959149 18 1 C17.67 1.99 17.34 2.98 17 4 C11.39 3.67 5.78 3.34 0 3 C0 2.01 0 1.02 0 0 Z " fill="#566784" transform="translate(244,62)"/>
<path d="M0 0 C3.625 -0.1875 3.625 -0.1875 7 0 C7.33 0.66 7.66 1.32 8 2 C7.0409375 2.4021875 7.0409375 2.4021875 6.0625 2.8125 C3.66868314 3.88667752 3.66868314 3.88667752 3 7 C3.66 7.33 4.32 7.66 5 8 C-0.875 7.125 -0.875 7.125 -2 6 C-4.32817964 5.63239269 -6.6618385 5.29758419 -9 5 C-9 4.67 -9 4.34 -9 4 C-7.88625 3.896875 -6.7725 3.79375 -5.625 3.6875 C-4.42875 3.460625 -3.2325 3.23375 -2 3 C-1.34 2.01 -0.68 1.02 0 0 Z " fill="#DE9636" transform="translate(94,100)"/>
<path d="M0 0 C0.33 0 0.66 0 1 0 C1.05389087 1.95803507 1.09274217 3.91648909 1.125 5.875 C1.14820313 6.96554688 1.17140625 8.05609375 1.1953125 9.1796875 C1 12 1 12 -1 14 C-3.65537372 14.56520003 -6.29144713 14.73788198 -9 15 C-9 14.34 -9 13.68 -9 13 C-10.051875 12.87625 -11.10375 12.7525 -12.1875 12.625 C-15.45958771 12.08859218 -18.00536076 11.36119965 -21 10 C-18.30410561 8.65205281 -16.96922612 9.59068757 -14.21875 10.453125 C-9.88755837 11.52067223 -5.43779718 11.67127428 -1 12 C-0.67 8.04 -0.34 4.08 0 0 Z " fill="#586F8B" transform="translate(145,81)"/>
<path d="M0 0 C1.2065625 0.0309375 1.2065625 0.0309375 2.4375 0.0625 C2.4375 2.3725 2.4375 4.6825 2.4375 7.0625 C0.5625 8.125 0.5625 8.125 -1.5625 9.0625 C-2.2225 8.7325 -2.8825 8.4025 -3.5625 8.0625 C-3.60491723 5.72955225 -3.60342937 3.39547433 -3.5625 1.0625 C-2.5625 0.0625 -2.5625 0.0625 0 0 Z " fill="#637C9D" transform="translate(157.5625,103.9375)"/>
<path d="M0 0 C2.45993028 0.2813059 4.91740248 0.57452731 7.375 0.875 C8.42300781 0.99294922 8.42300781 0.99294922 9.4921875 1.11328125 C14.7734375 1.7734375 14.7734375 1.7734375 17 4 C10.93179132 5.08360869 6.89893243 4.79074734 1 3 C1 3.99 1 4.98 1 6 C1.99 6.33 2.98 6.66 4 7 C3.01 7.495 3.01 7.495 2 8 C1.34 7.67 0.68 7.34 0 7 C0 4.69 0 2.38 0 0 Z " fill="#E19D3D" transform="translate(47,126)"/>
<path d="M0 0 C8.16946659 0.4473195 16.02275914 1.17336882 24 3 C25.66585071 3.33738748 27.33232652 3.6717409 29 4 C29 4.33 29 4.66 29 5 C22.4 4.67 15.8 4.34 9 4 C9 3.34 9 2.68 9 2 C7.329375 2.061875 7.329375 2.061875 5.625 2.125 C2 2 2 2 0 0 Z " fill="#768AA5" transform="translate(171,67)"/>
<path d="M0 0 C0.66 0.33 1.32 0.66 2 1 C2.05382106 3.62527189 2.09358313 6.24944713 2.125 8.875 C2.14175781 9.62136719 2.15851563 10.36773437 2.17578125 11.13671875 C2.1933959 13.09194461 2.10320189 15.04742021 2 17 C1.34 17.66 0.68 18.32 0 19 C-0.7591914 13.02136775 -1.45790557 7.03357931 -1 1 C-0.67 0.67 -0.34 0.34 0 0 Z " fill="#4D5F7B" transform="translate(113,66)"/>
<path d="M0 0 C0 0.99 0 1.98 0 3 C1.051875 3.185625 1.051875 3.185625 2.125 3.375 C5.17656387 4.03838345 8.05340938 4.97211955 11 6 C11 6.33 11 6.66 11 7 C0.83763838 7.39852399 0.83763838 7.39852399 -3 5 C-3.8125 2.875 -3.8125 2.875 -4 1 C-2 0 -2 0 0 0 Z " fill="#F1AA44" transform="translate(44,144)"/>
<path d="M0 0 C6.60856604 0.41235716 12.65264143 1.00867182 19 3 C21.32787927 3.36950465 23.66045145 3.71352467 26 4 C26 4.33 26 4.66 26 5 C23.54137599 5.05383848 21.0839245 5.09359038 18.625 5.125 C17.57699219 5.15013672 17.57699219 5.15013672 16.5078125 5.17578125 C14.67102514 5.19344267 12.83398037 5.10303261 11 5 C10.34 4.34 9.68 3.68 9 3 C6.79749008 2.53993654 6.79749008 2.53993654 4.375 2.375 C3.14910156 2.26285156 3.14910156 2.26285156 1.8984375 2.1484375 C1.27195312 2.09945312 0.64546875 2.05046875 0 2 C0 1.34 0 0.68 0 0 Z " fill="#9D7B50" transform="translate(125,133)"/>
<path d="M0 0 C2.89516187 0.31299047 4.54479156 0.5533804 6.65625 2.625 C8.45365933 5.8018165 8.29622914 8.1256955 8.1875 11.75 C8.16042969 12.92046875 8.13335937 14.0909375 8.10546875 15.296875 C8.07066406 16.18890625 8.03585937 17.0809375 8 18 C7.34 18 6.68 18 6 18 C6 13.71 6 9.42 6 5 C5.01 4.67 4.02 4.34 3 4 C3 3.34 3 2.68 3 2 C2.01 2 1.02 2 0 2 C0 1.34 0 0.68 0 0 Z " fill="#8893A8" transform="translate(263,65)"/>
<path d="M0 0 C1.65 0 3.3 0 5 0 C5 2.64 5 5.28 5 8 C3.35 8.33 1.7 8.66 0 9 C0.99 7.68 1.98 6.36 3 5 C2.01 5 1.02 5 0 5 C-0.33 5.66 -0.66 6.32 -1 7 C-0.67 4.69 -0.34 2.38 0 0 Z " fill="#647FA1" transform="translate(232,116)"/>
<path d="M0 0 C0.99 0 1.98 0 3 0 C3 2.31 3 4.62 3 7 C0.03 6.67 -2.94 6.34 -6 6 C-6 4.68 -6 3.36 -6 2 C-4.35 2 -2.7 2 -1 2 C-0.67 1.34 -0.34 0.68 0 0 Z " fill="#6F88A8" transform="translate(209,113)"/>
<path d="M0 0 C5.61 0.33 11.22 0.66 17 1 C17 1.66 17 2.32 17 3 C13.52674819 4.1577506 10.63932552 4.06866652 7 4 C7 3.34 7 2.68 7 2 C5.02 2 3.04 2 1 2 C0.67 1.34 0.34 0.68 0 0 Z " fill="#707F99" transform="translate(135,44)"/>
<path d="M0 0 C2.5216376 0.11503269 5.0418119 0.24174777 7.5625 0.375 C8.61920898 0.42140625 8.61920898 0.42140625 9.69726562 0.46875 C14.41295741 0.72952558 18.50385496 1.54658123 23 3 C23 3.33 23 3.66 23 4 C14.98298054 4.41467342 7.78069851 2.85939879 0 1 C0 0.67 0 0.34 0 0 Z " fill="#8CA1BD" transform="translate(118,118)"/>
<path d="M0 0 C8.57142857 -0.14285714 8.57142857 -0.14285714 12 1 C12 1.99 12 2.98 12 4 C3.42857143 4.14285714 3.42857143 4.14285714 0 3 C0 2.01 0 1.02 0 0 Z " fill="#D1DEEF" transform="translate(124,83)"/>
<path d="M0 0 C0.33 0 0.66 0 1 0 C1 2.31 1 4.62 1 7 C1.75925781 7.03738281 2.51851562 7.07476562 3.30078125 7.11328125 C4.29464844 7.17902344 5.28851563 7.24476562 6.3125 7.3125 C7.29863281 7.37050781 8.28476563 7.42851563 9.30078125 7.48828125 C12.24384457 8.04622813 13.18182999 8.68540132 15 11 C9.47322267 11.19392201 5.24385089 10.7479503 0 9 C0 6.03 0 3.06 0 0 Z " fill="#92A6BE" transform="translate(128,52)"/>
<path d="M0 0 C-0.33 1.65 -0.66 3.3 -1 5 C-3.97 4.67 -6.94 4.34 -10 4 C-9.67 3.01 -9.34 2.02 -9 1 C-5.8035914 -0.06546953 -3.34252724 -0.07427838 0 0 Z " fill="#F8AE42" transform="translate(47,109)"/>
<path d="M0 0 C2.83404585 0.11505742 5.66679619 0.24177725 8.5 0.375 C9.29148438 0.4059375 10.08296875 0.436875 10.8984375 0.46875 C16.18128612 0.72856223 20.90743869 1.56333706 26 3 C26 3.33 26 3.66 26 4 C17.05571013 4.58051881 8.70163476 2.81374025 0 1 C0 0.67 0 0.34 0 0 Z " fill="#4B617A" transform="translate(145,121)"/>
<path d="M0 0 C0.99 0.33 1.98 0.66 3 1 C3 1.99 3 2.98 3 4 C4.65 4.33 6.3 4.66 8 5 C8.33 7.31 8.66 9.62 9 12 C7.68 11.67 6.36 11.34 5 11 C5.33 9.35 5.66 7.7 6 6 C5.071875 5.7834375 5.071875 5.7834375 4.125 5.5625 C2 5 2 5 0 4 C0 2.68 0 1.36 0 0 Z " fill="#C9964E" transform="translate(37,113)"/>
<path d="M0 0 C2.97 0 5.94 0 9 0 C9.33 1.65 9.66 3.3 10 5 C7.69 5 5.38 5 3 5 C3 4.01 3 3.02 3 2 C2.01 1.67 1.02 1.34 0 1 C0 0.67 0 0.34 0 0 Z " fill="#DAECFA" transform="translate(134,80)"/>
<path d="M0 0 C6.41688675 -0.10349817 12.62694402 0.25492456 19 1 C19 1.99 19 2.98 19 4 C12.50149789 3.48446121 6.33773468 2.53332291 0 1 C0 0.67 0 0.34 0 0 Z " fill="#839CBB" transform="translate(195,124)"/>
<path d="M0 0 C0 0.33 0 0.66 0 1 C-11.385 0.505 -11.385 0.505 -23 0 C-23 -0.66 -23 -1.32 -23 -2 C-16.93848785 -5.03075608 -6.37969148 -1.24925518 0 0 Z " fill="#4D6481" transform="translate(140,119)"/>
<path d="M0 0 C7.8316181 -0.2700558 15.27279225 0.76892281 23 2 C20.04350085 3.72351968 18.26063404 4.22473835 14.875 3.75 C13.71291016 3.58951172 13.71291016 3.58951172 12.52734375 3.42578125 C8.32987756 2.7186347 4.16124561 1.89479812 0 1 C0 0.67 0 0.34 0 0 Z " fill="#899EBA" transform="translate(137,118)"/>
<path d="M0 0 C1.53445094 3.06890187 0.54984289 5.70094266 0 9 C0.66 9 1.32 9 2 9 C2 9.66 2 10.32 2 11 C0.35 10.67 -1.3 10.34 -3 10 C-3 7.03 -3 4.06 -3 1 C-2.01 0.67 -1.02 0.34 0 0 Z " fill="#D7B389" transform="translate(37,130)"/>
<path d="M0 0 C-0.33 2.31 -0.66 4.62 -1 7 C-3.97 6.505 -3.97 6.505 -7 6 C-6.6875 4.125 -6.6875 4.125 -6 2 C-3 0 -3 0 0 0 Z " fill="#6981A2" transform="translate(223,115)"/>
<path d="M0 0 C0.99 0 1.98 0 3 0 C3.36279456 1.28926992 3.71496698 2.58153272 4.0625 3.875 C4.25972656 4.59429687 4.45695313 5.31359375 4.66015625 6.0546875 C5 8 5 8 4 10 C2.68 10 1.36 10 0 10 C0 6.7 0 3.4 0 0 Z " fill="#4B6789" transform="translate(165,105)"/>
<path d="M0 0 C0.66 0 1.32 0 2 0 C2 2.31 2 4.62 2 7 C1.01 7.33 0.02 7.66 -1 8 C-1.99 7.34 -2.98 6.68 -4 6 C-2.84826645 3.53199953 -1.95216435 1.95216435 0 0 Z " fill="#6781A1" transform="translate(187,109)"/>
<path d="M0 0 C6.0018137 -0.21824777 11.19233704 0.4943096 17 2 C17 2.33 17 2.66 17 3 C10.90218999 3.22084624 5.78357065 3.01167675 0 1 C0 0.67 0 0.34 0 0 Z " fill="#859DBB" transform="translate(131,113)"/>
<path d="M0 0 C0.99 0 1.98 0 3 0 C3 2.97 3 5.94 3 9 C1.02 9.99 1.02 9.99 -1 11 C-0.67 7.37 -0.34 3.74 0 0 Z " fill="#516380" transform="translate(260,120)"/>
<path d="M0 0 C0.99 0 1.98 0 3 0 C3 0.99 3 1.98 3 3 C4.093125 2.938125 5.18625 2.87625 6.3125 2.8125 C10 3 10 3 11.73046875 4.51171875 C12.35888672 5.24841797 12.35888672 5.24841797 13 6 C11.39504433 5.88557539 9.79101881 5.75805306 8.1875 5.625 C7.29417969 5.55539063 6.40085937 5.48578125 5.48046875 5.4140625 C3 5 3 5 0 3 C0 2.01 0 1.02 0 0 Z " fill="#C69147" transform="translate(49,157)"/>
<path d="M0 0 C-0.33 1.32 -0.66 2.64 -1 4 C-0.01 4.33 0.98 4.66 2 5 C2 5.99 2 6.98 2 8 C1.34 8 0.68 8 0 8 C0 7.34 0 6.68 0 6 C-1.65 5.67 -3.3 5.34 -5 5 C-5 3.68 -5 2.36 -5 1 C-3 0 -3 0 0 0 Z " fill="#E9BA78" transform="translate(166,147)"/>
<path d="M0 0 C0.99 0 1.98 0 3 0 C2.67 2.97 2.34 5.94 2 9 C1.01 9.33 0.02 9.66 -1 10 C-1.02689216 8.52093108 -1.04634621 7.04172517 -1.0625 5.5625 C-1.07410156 4.73878906 -1.08570312 3.91507813 -1.09765625 3.06640625 C-1 1 -1 1 0 0 Z " fill="#55657F" transform="translate(115,56)"/>
<path d="M0 0 C6.77299898 -0.25939145 13.49710284 -0.12822089 20 2 C20.33 2.66 20.66 3.32 21 4 C16.71 3.67 12.42 3.34 8 3 C8 2.34 8 1.68 8 1 C5.36 1 2.72 1 0 1 C0 0.67 0 0.34 0 0 Z " fill="#7086A0" transform="translate(129,51)"/>
<path d="M0 0 C3.7952131 1.49097658 5.61042731 3.75700849 8 7 C5.36 6.67 2.72 6.34 0 6 C0 4.02 0 2.04 0 0 Z " fill="#C49657" transform="translate(38,147)"/>
<path d="M0 0 C3.96 0 7.92 0 12 0 C12 0.66 12 1.32 12 2 C9.69 2 7.38 2 5 2 C4.67 3.32 4.34 4.64 4 6 C3.34 6 2.68 6 2 6 C2 4.35 2 2.7 2 1 C1.34 0.67 0.68 0.34 0 0 Z " fill="#C2B6AD" transform="translate(163,141)"/>
<path d="M0 0 C7.75 -0.125 7.75 -0.125 10 1 C11.53668865 1.22467831 13.07968054 1.40796805 14.625 1.5625 C15.85089844 1.68818359 15.85089844 1.68818359 17.1015625 1.81640625 C17.72804687 1.87699219 18.35453125 1.93757812 19 2 C19 2.99 19 3.98 19 5 C18.01 5 17.02 5 16 5 C16 4.34 16 3.68 16 3 C14.700625 3.020625 13.40125 3.04125 12.0625 3.0625 C10.70834367 3.08399454 9.35243917 3.07148199 8 3 C7.67 2.67 7.34 2.34 7 2 C4.67182036 1.63239269 2.3381615 1.29758419 0 1 C0 0.67 0 0.34 0 0 Z " fill="#3D475A" transform="translate(159,138)"/>
<path d="M0 0 C0.66 0 1.32 0 2 0 C2 2.64 2 5.28 2 8 C1.34 8 0.68 8 0 8 C-0.33 8.99 -0.66 9.98 -1 11 C-2.60080151 6.99799622 -1.29279692 3.95443764 0 0 Z " fill="#6E7C97" transform="translate(260,130)"/>
<path d="M0 0 C0.66 0 1.32 0 2 0 C2.125 2.375 2.125 2.375 2 5 C-0.58926331 7.58926331 -2.02705279 7.37398043 -5.625 7.625 C-6.62789062 7.69976562 -7.63078125 7.77453125 -8.6640625 7.8515625 C-9.82035156 7.92503906 -9.82035156 7.92503906 -11 8 C-10.67 7.34 -10.34 6.68 -10 6 C-7.93359375 5.5859375 -7.93359375 5.5859375 -5.4375 5.375 C-4.61121094 5.30023438 -3.78492188 5.22546875 -2.93359375 5.1484375 C-1.97646484 5.07496094 -1.97646484 5.07496094 -1 5 C-0.67 3.35 -0.34 1.7 0 0 Z " fill="#CA9954" transform="translate(166,155)"/>
<path d="M0 0 C1.32 0 2.64 0 4 0 C4 2.31 4 4.62 4 7 C2.68 7 1.36 7 0 7 C0 4.69 0 2.38 0 0 Z " fill="#D9B080" transform="translate(45,154)"/>
<path d="M0 0 C6.06892629 -0.25287193 11.16200408 0.30167391 17 2 C17 2.33 17 2.66 17 3 C10.93107371 3.25287193 5.83799592 2.69832609 0 1 C0 0.67 0 0.34 0 0 Z " fill="#92A7C1" transform="translate(182,125)"/>
<path d="M0 0 C1.32 0 2.64 0 4 0 C4 2.97 4 5.94 4 9 C2.35 9 0.7 9 -1 9 C-1 8.01 -1 7.02 -1 6 C-0.01 6.33 0.98 6.66 2 7 C2 5.02 2 3.04 2 1 C1.34 0.67 0.68 0.34 0 0 Z " fill="#6780A0" transform="translate(178,107)"/>
<path d="M0 0 C0.66 0 1.32 0 2 0 C2 2.31 2 4.62 2 7 C0.35 7 -1.3 7 -3 7 C-3 5.68 -3 4.36 -3 3 C-2.34 3 -1.68 3 -1 3 C-0.67 2.01 -0.34 1.02 0 0 Z " fill="#6F87A9" transform="translate(143,102)"/>
<path d="M0 0 C0.66 0 1.32 0 2 0 C2 2.64 2 5.28 2 8 C1.34 8 0.68 8 0 8 C-0.33 8.99 -0.66 9.98 -1 11 C-2.23825459 7.28523623 -1.70587257 4.81171187 -1 1 C-0.67 0.67 -0.34 0.34 0 0 Z " fill="#697994" transform="translate(266,93)"/>
<path d="M0 0 C7.75 -0.125 7.75 -0.125 10 1 C10 1.99 10 2.98 10 4 C6.7 3.34 3.4 2.68 0 2 C0 1.34 0 0.68 0 0 Z " fill="#566783" transform="translate(208,56)"/>
<path d="M0 0 C4.29 0 8.58 0 13 0 C13 0.66 13 1.32 13 2 C15.64 2.33 18.28 2.66 21 3 C17.18243176 4.37432457 13.92744671 3.67975039 10 3 C10 2.34 10 1.68 10 1 C6.7 1 3.4 1 0 1 C0 0.67 0 0.34 0 0 Z " fill="#576F8B" transform="translate(166,57)"/>
<path d="M0 0 C1.32 0 2.64 0 4 0 C4 2.64 4 5.28 4 8 C2.02 8 0.04 8 -2 8 C-1.67 7.34 -1.34 6.68 -1 6 C-0.01 6.33 0.98 6.66 2 7 C1.67 6.01 1.34 5.02 1 4 C1.33 3.34 1.66 2.68 2 2 C1.01 1.67 0.02 1.34 -1 1 C-0.67 0.67 -0.34 0.34 0 0 Z " fill="#6D87AA" transform="translate(135,100)"/>
<path d="M0 0 C0.66 0.33 1.32 0.66 2 1 C2.05395478 2.62463842 2.09277195 4.24978541 2.125 5.875 C2.14820313 6.77992187 2.17140625 7.68484375 2.1953125 8.6171875 C2 11 2 11 0 13 C0 11.02 0 9.04 0 7 C-1.65 6.67 -3.3 6.34 -5 6 C-5 5.67 -5 5.34 -5 5 C-3.02 5 -1.04 5 1 5 C0.67 3.35 0.34 1.7 0 0 Z " fill="#9EB0C7" transform="translate(143,80)"/>
<path d="M0 0 C1.5 1.3125 1.5 1.3125 3 3 C3 3.99 3 4.98 3 6 C3.99 6 4.98 6 6 6 C5.67 6.99 5.34 7.98 5 9 C3.35 8.67 1.7 8.34 0 8 C0 5.36 0 2.72 0 0 Z " fill="#415A7C" transform="translate(229,115)"/>
<path d="M0 0 C9.41002278 -0.18451025 9.41002278 -0.18451025 14 1 C14 1.33 14 1.66 14 2 C9.02936879 2.91297308 4.97063121 2.91297308 0 2 C0 1.34 0 0.68 0 0 Z " fill="#7E96AF" transform="translate(143,122)"/>
<path d="M0 0 C1.32 0.33 2.64 0.66 4 1 C4 2.65 4 4.3 4 6 C1.03 5.505 1.03 5.505 -2 5 C-1.34 3.35 -0.68 1.7 0 0 Z " fill="#304A6D" transform="translate(133,101)"/>
<path d="M0 0 C1.72880982 -0.05449838 3.45812712 -0.09301688 5.1875 -0.125 C6.15042969 -0.14820313 7.11335937 -0.17140625 8.10546875 -0.1953125 C11.12812778 0.0086456 13.26769985 0.73125368 16 2 C16 2.33 16 2.66 16 3 C10.36718401 3.2396943 5.45461169 2.38529821 0 1 C0 0.67 0 0.34 0 0 Z " fill="#4E6883" transform="translate(150,54)"/>
<path d="M0 0 C2.64 0 5.28 0 8 0 C8 0.99 8 1.98 8 3 C5.36 3 2.72 3 0 3 C0 2.01 0 1.02 0 0 Z " fill="#6D7D96" transform="translate(180,51)"/>
<path d="M0 0 C0.99 0.495 0.99 0.495 2 1 C2 1.66 2 2.32 2 3 C3.32 3.33 4.64 3.66 6 4 C4.6875 5.5 4.6875 5.5 3 7 C2.01 7 1.02 7 0 7 C0 4.69 0 2.38 0 0 Z " fill="#30496B" transform="translate(125,98)"/>
<path d="M0 0 C0.33 0 0.66 0 1 0 C1.0825 0.763125 1.165 1.52625 1.25 2.3125 C2.15495191 5.55524435 3.28773348 6.16265816 6 8 C6 8.66 6 9.32 6 10 C5.01 10 4.02 10 3 10 C3 9.34 3 8.68 3 8 C1.35 8 -0.3 8 -2 8 C-1.34 7.67 -0.68 7.34 0 7 C0 4.69 0 2.38 0 0 Z " fill="#4A6384" transform="translate(145,102)"/>
<path d="M0 0 C2.64 0 5.28 0 8 0 C7.67 0.99 7.34 1.98 7 3 C4.69 3 2.38 3 0 3 C0 2.01 0 1.02 0 0 Z " fill="#6C7E9B" transform="translate(162,48)"/>
<path d="M0 0 C2.31 0 4.62 0 7 0 C7 0.99 7 1.98 7 3 C4.69 3 2.38 3 0 3 C0 2.01 0 1.02 0 0 Z " fill="#7988A0" transform="translate(236,60)"/>
<path d="M0 0 C0.33 0.99 0.66 1.98 1 3 C-0.55356274 4.55356274 -2.22616802 4.34344431 -4.375 4.5625 C-5.16648438 4.64628906 -5.95796875 4.73007813 -6.7734375 4.81640625 C-9 5 -9 5 -12 5 C-10 3 -10 3 -8.0546875 2.8046875 C-6.03645833 2.86979167 -4.01822917 2.93489583 -2 3 C-2 2.34 -2 1.68 -2 1 C-1.34 0.67 -0.68 0.34 0 0 Z " fill="#CE903B" transform="translate(165,157)"/>
<path d="M0 0 C0.99 0 1.98 0 3 0 C3 1.65 3 3.3 3 5 C1.35 5.33 -0.3 5.66 -2 6 C-1.34 4.02 -0.68 2.04 0 0 Z " fill="#C7984E" transform="translate(162,142)"/>
<path d="M0 0 C2.31309705 0.11341637 4.62550185 0.24103807 6.9375 0.375 C8.86916016 0.47941406 8.86916016 0.47941406 10.83984375 0.5859375 C12.40412109 0.79089844 12.40412109 0.79089844 14 1 C14.33 1.66 14.66 2.32 15 3 C12.87506859 3.02693575 10.75004088 3.04636628 8.625 3.0625 C7.44164062 3.07410156 6.25828125 3.08570312 5.0390625 3.09765625 C2 3 2 3 0 2 C0 1.34 0 0.68 0 0 Z " fill="#667C99" transform="translate(191,122)"/>
<path d="M0 0 C0.99 0 1.98 0 3 0 C3 0.66 3 1.32 3 2 C3.66 2.33 4.32 2.66 5 3 C4.67 3.99 4.34 4.98 4 6 C2.68 5.67 1.36 5.34 0 5 C0 3.35 0 1.7 0 0 Z " fill="#284264" transform="translate(168,105)"/>
<path d="M0 0 C2.31 0 4.62 0 7 0 C6.67 0.99 6.34 1.98 6 3 C4.02 3 2.04 3 0 3 C0 2.01 0 1.02 0 0 Z " fill="#828DA5" transform="translate(255,63)"/>
<path d="M0 0 C0.70125 0.144375 1.4025 0.28875 2.125 0.4375 C5.07556141 1.01478375 8.03270151 1.51695141 11 2 C11 2.33 11 2.66 11 3 C7.7 3 4.4 3 1 3 C0.67 2.01 0.34 1.02 0 0 Z " fill="#89A0BD" transform="translate(167,125)"/>
<path d="M0 0 C0.33 1.32 0.66 2.64 1 4 C-1.375 4.1875 -1.375 4.1875 -4 4 C-4.66 3.01 -5.32 2.02 -6 1 C-4.02 0.67 -2.04 0.34 0 0 Z " fill="#EEAE4E" transform="translate(105,109)"/>
<path d="M0 0 C0.99 0 1.98 0 3 0 C3.125 3.375 3.125 3.375 3 7 C2.34 7.66 1.68 8.32 1 9 C0.67 6.03 0.34 3.06 0 0 Z " fill="#5A7397" transform="translate(122,97)"/>
<path d="M0 0 C0.66 0 1.32 0 2 0 C2 0.99 2 1.98 2 3 C4.64 3 7.28 3 10 3 C10 3.33 10 3.66 10 4 C8.37536158 4.05395478 6.75021459 4.09277195 5.125 4.125 C4.22007812 4.14820312 3.31515625 4.17140625 2.3828125 4.1953125 C0 4 0 4 -2 2 C-1.34 2 -0.68 2 0 2 C0 1.34 0 0.68 0 0 Z " fill="#C9DEEF" transform="translate(133,89)"/>
<path d="M0 0 C2.88437779 1.29299694 4.87219421 2.65941363 7 5 C5.35 5 3.7 5 2 5 C2 4.34 2 3.68 2 3 C1.34 3 0.68 3 0 3 C0 2.01 0 1.02 0 0 Z " fill="#CA9D5C" transform="translate(37,136)"/>
<path d="M0 0 C0 2.64 0 5.28 0 8 C-0.66 8 -1.32 8 -2 8 C-2.33 5.69 -2.66 3.38 -3 1 C-1 0 -1 0 0 0 Z " fill="#C79654" transform="translate(105,116)"/>
<path d="M0 0 C1.32 0 2.64 0 4 0 C4 0.66 4 1.32 4 2 C3.01 2 2.02 2 1 2 C1 2.99 1 3.98 1 5 C0.01 5 -0.98 5 -2 5 C-2 4.01 -2 3.02 -2 2 C-1.34 2 -0.68 2 0 2 C0 1.34 0 0.68 0 0 Z " fill="#EFD2A0" transform="translate(36,106)"/>
<path d="M0 0 C1.65 0 3.3 0 5 0 C5.33 0.99 5.66 1.98 6 3 C5.67 3.66 5.34 4.32 5 5 C4.34 5 3.68 5 3 5 C3 4.34 3 3.68 3 3 C2.01 2.67 1.02 2.34 0 2 C0 1.34 0 0.68 0 0 Z " fill="#5E779A" transform="translate(127,99)"/>
<path d="M0 0 C-3.45214853 2.30143236 -4.23479324 2.13833854 -8.1875 1.625 C-9.53908203 1.45871094 -9.53908203 1.45871094 -10.91796875 1.2890625 C-11.60503906 1.19367188 -12.29210937 1.09828125 -13 1 C-13 0.67 -13 0.34 -13 0 C-8.34462607 -0.83796731 -4.62921525 -1.0161692 0 0 Z " fill="#9AA9BC" transform="translate(137,82)"/>
</svg>
