<svg width="112" height="32" viewBox="0 0 112 32" fill="none" xmlns="http://www.w3.org/2000/svg">
<g id="Group 1497 1" clip-path="url(#clip0_4955_26641)">
<path id="Vector" d="M21.6323 11.8973C21.6323 14.6825 20.0964 16.7901 14.7896 16.7901H0.00786628V6.57481H14.8899C15.6421 6.57481 16.3511 6.30024 16.3511 5.44791C16.3511 4.59457 15.6215 4.36741 14.8899 4.36741H0L3.52311 0H14.6637C18.6883 0 21.2792 1.55753 21.2792 4.64197C21.2792 6.62519 20.1485 7.73037 18.9912 8.15803C20.4493 8.58272 21.6323 9.88641 21.6323 11.8973ZM5.23403 10.1649V12.4721H14.8152C15.9469 12.4721 16.4257 12.0721 16.4257 11.2948C16.4257 10.5679 15.9469 10.1649 14.8152 10.1649H5.23403ZM29.4985 16.7901H24.5821V0H29.4985V16.7901ZM43.8407 16.7901H32.4484V6.32493H37.7384V12.4721H43.8407C46.7611 12.4721 48.8781 10.8672 48.8781 8.45037C48.8781 6.09284 46.6932 4.36049 43.8476 4.36049H32.4563L35.8083 0H43.8407C49.7867 0 54.0807 3.38765 54.0807 8.23209C54.0807 13.0775 49.7365 16.7901 43.8407 16.7901ZM68.4208 16.7901H57.0305V6.32493H62.3304V12.4721H68.4287C71.352 12.4721 73.4612 10.8672 73.4612 8.45728C73.4612 6.09975 71.2744 4.3684 68.4287 4.3684H57.0384L60.3913 0H68.4208C74.3668 0 78.6628 3.38765 78.6628 8.23209C78.6628 13.0775 74.3167 16.7901 68.4208 16.7901Z" fill="#265896"/>
<path id="Vector_2" d="M105.223 0.0296517H110.829C110.885 0.0298999 110.94 0.0466463 110.986 0.0777947C111.032 0.108943 111.068 0.153111 111.09 0.204768C111.111 0.256425 111.117 0.313279 111.106 0.368212C111.096 0.423145 111.069 0.473719 111.03 0.513603L102.867 8.73088C102.84 8.7574 102.819 8.78888 102.805 8.82353C102.791 8.8582 102.783 8.89535 102.783 8.93287C102.783 8.97037 102.791 9.00753 102.805 9.04219C102.819 9.07684 102.84 9.10832 102.867 9.13484L110.915 17.2237C110.954 17.2636 110.981 17.3141 110.992 17.3691C111.002 17.424 110.997 17.4808 110.976 17.5327C110.955 17.5844 110.919 17.6288 110.873 17.6603C110.826 17.6917 110.772 17.7089 110.716 17.7096H104.98C104.906 17.7091 104.835 17.6793 104.782 17.6267L99.5512 12.3595C99.5252 12.3331 99.4941 12.3121 99.46 12.2978C99.4258 12.2835 99.3892 12.2761 99.3521 12.2761C99.315 12.2761 99.2784 12.2835 99.2442 12.2978C99.2101 12.3121 99.179 12.3331 99.1529 12.3595L93.8393 17.6948C93.786 17.748 93.7138 17.7777 93.6388 17.7779H80.9121C80.8372 17.7773 80.7654 17.7472 80.7124 17.6939C80.6594 17.6407 80.6294 17.5687 80.6289 17.4933V7.00151C80.6289 6.84545 80.7548 6.71904 80.9092 6.71904L90.3605 6.60348C90.4013 6.60285 90.4417 6.61108 90.479 6.62763C90.5164 6.64416 90.5497 6.6686 90.5768 6.69928L92.443 8.78719C92.4918 8.84221 92.5176 8.91407 92.5148 8.98769C92.512 9.06132 92.481 9.13104 92.4282 9.18224L90.4538 11.0657C90.4009 11.1166 90.3305 11.1449 90.2572 11.1447H85.9013C85.8645 11.1445 85.828 11.1515 85.7938 11.1654C85.7597 11.1793 85.7288 11.1998 85.7025 11.2258C85.6764 11.2517 85.6554 11.2826 85.6412 11.3167C85.6268 11.3507 85.6193 11.3873 85.619 11.4242V13.4844C85.619 13.6415 85.7458 13.7689 85.9022 13.7689H91.441C91.5162 13.7689 91.5882 13.7391 91.6417 13.686L95.9926 9.3136C96.0458 9.26011 96.0756 9.18765 96.0756 9.11212C96.0756 9.03659 96.0458 8.96413 95.9926 8.91064L91.3428 4.23607C91.317 4.20993 91.2864 4.18915 91.2526 4.17491C91.2189 4.16068 91.1826 4.15327 91.1461 4.15311H85.0144C84.9773 4.15308 84.9406 4.14564 84.9066 4.13123C84.8725 4.11681 84.8416 4.09571 84.8157 4.06916L81.2552 0.483973C81.2152 0.444461 81.1878 0.393816 81.1766 0.338557C81.1656 0.283299 81.1712 0.225953 81.1926 0.173903C81.2142 0.121852 81.2509 0.0774769 81.2977 0.0464889C81.3446 0.0155008 81.3997 -0.000682365 81.4558 2.20563e-05H93.0998C93.1756 2.20563e-05 93.2473 0.0296517 93.3005 0.0829851L99.087 5.90521C99.1134 5.93203 99.1448 5.95332 99.1794 5.96785C99.214 5.98239 99.2512 5.98987 99.2886 5.98987C99.3261 5.98987 99.3633 5.98239 99.3978 5.96785C99.4325 5.95332 99.4638 5.93203 99.4902 5.90521L105.005 0.121504C105.032 0.0917197 105.066 0.0682215 105.104 0.0525589C105.142 0.0368964 105.182 0.028438 105.223 0.0296517Z" fill="#E2A739"/>
<path id="Vector_3" d="M1.24609 24.0285H3.82249C4.26329 24.0285 4.60529 24.1526 4.84849 24.4009C5.09676 24.6491 5.22089 24.9785 5.22089 25.3889C5.22089 25.5915 5.19303 25.7638 5.13729 25.9057C5.08663 26.0475 5.01569 26.1641 4.92449 26.2553C4.83836 26.3465 4.73449 26.4149 4.61289 26.4605C4.49636 26.501 4.36969 26.5238 4.23289 26.5289V26.5745C4.35956 26.5745 4.49129 26.5973 4.62809 26.6429C4.76996 26.6885 4.89916 26.7619 5.01569 26.8633C5.13223 26.9595 5.22849 27.0862 5.30449 27.2433C5.38556 27.4003 5.42609 27.5929 5.42609 27.8209C5.42609 28.0286 5.39063 28.2262 5.31969 28.4137C5.25383 28.5961 5.16009 28.7557 5.03849 28.8925C4.91689 29.0293 4.77249 29.1382 4.60529 29.2193C4.43809 29.2953 4.25569 29.3333 4.05809 29.3333H1.24609V24.0285ZM2.40129 28.3605H3.73129C3.88329 28.3605 4.00236 28.3199 4.08849 28.2389C4.17969 28.1527 4.22529 28.0337 4.22529 27.8817V27.6233C4.22529 27.4713 4.17969 27.3547 4.08849 27.2737C4.00236 27.1875 3.88329 27.1445 3.73129 27.1445H2.40129V28.3605ZM2.40129 26.2021H3.54889C3.70089 26.2021 3.81996 26.159 3.90609 26.0729C3.99223 25.9867 4.03529 25.8677 4.03529 25.7157V25.4877C4.03529 25.3357 3.99223 25.2166 3.90609 25.1305C3.81996 25.0443 3.70089 25.0013 3.54889 25.0013H2.40129V26.2021ZM6.81684 24.9177C6.58884 24.9177 6.42164 24.867 6.31524 24.7657C6.21391 24.6593 6.16324 24.525 6.16324 24.3629V24.1957C6.16324 24.0335 6.21391 23.9018 6.31524 23.8005C6.42164 23.6941 6.58884 23.6409 6.81684 23.6409C7.04484 23.6409 7.20951 23.6941 7.31084 23.8005C7.41724 23.9018 7.47044 24.0335 7.47044 24.1957V24.3629C7.47044 24.525 7.41724 24.6593 7.31084 24.7657C7.20951 24.867 7.04484 24.9177 6.81684 24.9177ZM6.25444 25.3433H7.37924V29.3333H6.25444V25.3433ZM10.8762 28.6645H10.8382C10.8078 28.7709 10.7597 28.8722 10.6938 28.9685C10.628 29.0597 10.5469 29.1407 10.4506 29.2117C10.3594 29.2775 10.253 29.3282 10.1314 29.3637C10.0149 29.4042 9.89331 29.4245 9.76664 29.4245C9.25997 29.4245 8.87744 29.2471 8.61904 28.8925C8.36064 28.5327 8.23144 28.0134 8.23144 27.3345C8.23144 26.6555 8.36064 26.1387 8.61904 25.7841C8.87744 25.4294 9.25997 25.2521 9.76664 25.2521C10.025 25.2521 10.253 25.323 10.4506 25.4649C10.6533 25.6067 10.7825 25.7891 10.8382 26.0121H10.8762V23.7093H12.001V29.3333H10.8762V28.6645ZM10.139 28.5125C10.3518 28.5125 10.5266 28.4618 10.6634 28.3605C10.8053 28.2541 10.8762 28.1097 10.8762 27.9273V26.7493C10.8762 26.5669 10.8053 26.425 10.6634 26.3237C10.5266 26.2173 10.3518 26.1641 10.139 26.1641C9.92624 26.1641 9.74891 26.2401 9.60704 26.3921C9.47024 26.539 9.40184 26.7391 9.40184 26.9925V27.6841C9.40184 27.9374 9.47024 28.1401 9.60704 28.2921C9.74891 28.439 9.92624 28.5125 10.139 28.5125ZM17.1213 25.0545V29.3333H15.9661V25.0545H14.5297V24.0285H18.5577V25.0545H17.1213ZM19.2872 23.7093H20.412V26.0197H20.4576C20.5285 25.8119 20.6527 25.6321 20.83 25.4801C21.0073 25.3281 21.2531 25.2521 21.5672 25.2521C21.9776 25.2521 22.2867 25.3889 22.4944 25.6625C22.7072 25.9361 22.8136 26.3262 22.8136 26.8329V29.3333H21.6888V26.9241C21.6888 26.6657 21.6483 26.4757 21.5672 26.3541C21.4861 26.2274 21.3417 26.1641 21.134 26.1641C21.0428 26.1641 20.9541 26.1767 20.868 26.2021C20.7819 26.2223 20.7033 26.2578 20.6324 26.3085C20.5665 26.3591 20.5133 26.4225 20.4728 26.4985C20.4323 26.5694 20.412 26.653 20.412 26.7493V29.3333H19.2872V23.7093ZM25.4789 29.4245C25.1749 29.4245 24.9039 29.3763 24.6657 29.2801C24.4276 29.1787 24.2249 29.0394 24.0577 28.8621C23.8956 28.6797 23.7715 28.4593 23.6853 28.2009C23.6043 27.9425 23.5637 27.6537 23.5637 27.3345C23.5637 27.0203 23.6043 26.7366 23.6853 26.4833C23.7664 26.2249 23.8855 26.0045 24.0425 25.8221C24.2047 25.6397 24.4023 25.5003 24.6353 25.4041C24.8684 25.3027 25.1344 25.2521 25.4333 25.2521C25.7627 25.2521 26.0439 25.3078 26.2769 25.4193C26.5151 25.5307 26.7076 25.6802 26.8545 25.8677C27.0065 26.0551 27.1155 26.273 27.1813 26.5213C27.2523 26.7645 27.2877 27.0203 27.2877 27.2889V27.6233H24.7265V27.6841C24.7265 27.9475 24.7975 28.1578 24.9393 28.3149C25.0812 28.4669 25.3041 28.5429 25.6081 28.5429C25.8412 28.5429 26.0312 28.4973 26.1781 28.4061C26.3251 28.3098 26.4619 28.1958 26.5885 28.0641L27.1509 28.7633C26.9736 28.971 26.7405 29.1331 26.4517 29.2497C26.168 29.3662 25.8437 29.4245 25.4789 29.4245ZM25.4561 26.0805C25.2281 26.0805 25.0483 26.1565 24.9165 26.3085C24.7899 26.4554 24.7265 26.653 24.7265 26.9013V26.9621H26.1249V26.8937C26.1249 26.6505 26.0692 26.4554 25.9577 26.3085C25.8513 26.1565 25.6841 26.0805 25.4561 26.0805ZM29.9391 24.0285H32.5155C32.9563 24.0285 33.2983 24.1526 33.5415 24.4009C33.7897 24.6491 33.9139 24.9785 33.9139 25.3889C33.9139 25.5915 33.886 25.7638 33.8303 25.9057C33.7796 26.0475 33.7087 26.1641 33.6175 26.2553C33.5313 26.3465 33.4275 26.4149 33.3059 26.4605C33.1893 26.501 33.0627 26.5238 32.9259 26.5289V26.5745C33.0525 26.5745 33.1843 26.5973 33.3211 26.6429C33.4629 26.6885 33.5921 26.7619 33.7087 26.8633C33.8252 26.9595 33.9215 27.0862 33.9975 27.2433C34.0785 27.4003 34.1191 27.5929 34.1191 27.8209C34.1191 28.0286 34.0836 28.2262 34.0127 28.4137C33.9468 28.5961 33.8531 28.7557 33.7315 28.8925C33.6099 29.0293 33.4655 29.1382 33.2983 29.2193C33.1311 29.2953 32.9487 29.3333 32.7511 29.3333H29.9391V24.0285ZM31.0943 28.3605H32.4243C32.5763 28.3605 32.6953 28.3199 32.7815 28.2389C32.8727 28.1527 32.9183 28.0337 32.9183 27.8817V27.6233C32.9183 27.4713 32.8727 27.3547 32.7815 27.2737C32.6953 27.1875 32.5763 27.1445 32.4243 27.1445H31.0943V28.3605ZM31.0943 26.2021H32.2419C32.3939 26.2021 32.5129 26.159 32.5991 26.0729C32.6852 25.9867 32.7283 25.8677 32.7283 25.7157V25.4877C32.7283 25.3357 32.6852 25.2166 32.5991 25.1305C32.5129 25.0443 32.3939 25.0013 32.2419 25.0013H31.0943V26.2021ZM36.6119 29.4245C36.3079 29.4245 36.0368 29.3763 35.7987 29.2801C35.5605 29.1787 35.3579 29.0394 35.1907 28.8621C35.0285 28.6797 34.9044 28.4593 34.8183 28.2009C34.7372 27.9425 34.6967 27.6537 34.6967 27.3345C34.6967 27.0203 34.7372 26.7366 34.8183 26.4833C34.8993 26.2249 35.0184 26.0045 35.1755 25.8221C35.3376 25.6397 35.5352 25.5003 35.7683 25.4041C36.0013 25.3027 36.2673 25.2521 36.5663 25.2521C36.8956 25.2521 37.1768 25.3078 37.4099 25.4193C37.648 25.5307 37.8405 25.6802 37.9875 25.8677C38.1395 26.0551 38.2484 26.273 38.3143 26.5213C38.3852 26.7645 38.4207 27.0203 38.4207 27.2889V27.6233H35.8595V27.6841C35.8595 27.9475 35.9304 28.1578 36.0723 28.3149C36.2141 28.4669 36.4371 28.5429 36.7411 28.5429C36.9741 28.5429 37.1641 28.4973 37.3111 28.4061C37.458 28.3098 37.5948 28.1958 37.7215 28.0641L38.2839 28.7633C38.1065 28.971 37.8735 29.1331 37.5847 29.2497C37.3009 29.3662 36.9767 29.4245 36.6119 29.4245ZM36.5891 26.0805C36.3611 26.0805 36.1812 26.1565 36.0495 26.3085C35.9228 26.4554 35.8595 26.653 35.8595 26.9013V26.9621H37.2579V26.8937C37.2579 26.6505 37.2021 26.4554 37.0907 26.3085C36.9843 26.1565 36.8171 26.0805 36.5891 26.0805ZM40.5677 29.4245C40.1827 29.4245 39.8584 29.3637 39.5949 29.2421C39.3315 29.1154 39.0959 28.9381 38.8881 28.7101L39.5493 28.0413C39.6912 28.1983 39.8483 28.3225 40.0205 28.4137C40.1928 28.5049 40.3879 28.5505 40.6057 28.5505C40.8287 28.5505 40.9832 28.5175 41.0693 28.4517C41.1555 28.3807 41.1985 28.287 41.1985 28.1705C41.1985 27.983 41.0643 27.8715 40.7957 27.8361L40.3625 27.7829C39.4657 27.6714 39.0173 27.261 39.0173 26.5517C39.0173 26.3591 39.0528 26.1843 39.1237 26.0273C39.1997 25.8651 39.3036 25.7283 39.4353 25.6169C39.5721 25.5003 39.7343 25.4117 39.9217 25.3509C40.1143 25.285 40.3296 25.2521 40.5677 25.2521C40.7755 25.2521 40.9579 25.2673 41.1149 25.2977C41.2771 25.323 41.4189 25.3635 41.5405 25.4193C41.6672 25.4699 41.7812 25.5358 41.8825 25.6169C41.9889 25.6929 42.0928 25.779 42.1941 25.8753L41.5481 26.5365C41.4215 26.4098 41.2771 26.311 41.1149 26.2401C40.9579 26.1641 40.7957 26.1261 40.6285 26.1261C40.436 26.1261 40.2992 26.1565 40.2181 26.2173C40.1371 26.2781 40.0965 26.3591 40.0965 26.4605C40.0965 26.5669 40.1244 26.6505 40.1801 26.7113C40.2409 26.767 40.3524 26.8075 40.5145 26.8329L40.9629 26.8937C41.8395 27.0102 42.2777 27.4105 42.2777 28.0945C42.2777 28.287 42.2372 28.4643 42.1561 28.6265C42.0751 28.7886 41.9585 28.9305 41.8065 29.0521C41.6596 29.1686 41.4797 29.2598 41.2669 29.3257C41.0592 29.3915 40.8261 29.4245 40.5677 29.4245ZM44.3837 29.3333C43.9936 29.3333 43.6972 29.2345 43.4945 29.0369C43.2969 28.8393 43.1981 28.5505 43.1981 28.1705V26.2173H42.6357V25.3433H42.9169C43.0689 25.3433 43.1728 25.3078 43.2285 25.2369C43.2843 25.1609 43.3121 25.0545 43.3121 24.9177V24.2641H44.3229V25.3433H45.1133V26.2173H44.3229V28.4593H45.0525V29.3333H44.3837ZM55.0251 29.3333V24.0285H58.5439V25.0545H56.1803V26.1413H58.1943V27.1597H56.1803V29.3333H55.0251ZM60.7837 29.4245C60.4899 29.4245 60.2264 29.3763 59.9933 29.2801C59.7653 29.1838 59.5703 29.0445 59.4081 28.8621C59.2511 28.6797 59.1295 28.4593 59.0433 28.2009C58.9572 27.9425 58.9141 27.6537 58.9141 27.3345C58.9141 27.0153 58.9572 26.7265 59.0433 26.4681C59.1295 26.2097 59.2511 25.9918 59.4081 25.8145C59.5703 25.6321 59.7653 25.4927 59.9933 25.3965C60.2264 25.3002 60.4899 25.2521 60.7837 25.2521C61.0776 25.2521 61.3385 25.3002 61.5665 25.3965C61.7996 25.4927 61.9947 25.6321 62.1517 25.8145C62.3139 25.9918 62.438 26.2097 62.5241 26.4681C62.6103 26.7265 62.6533 27.0153 62.6533 27.3345C62.6533 27.6537 62.6103 27.9425 62.5241 28.2009C62.438 28.4593 62.3139 28.6797 62.1517 28.8621C61.9947 29.0445 61.7996 29.1838 61.5665 29.2801C61.3385 29.3763 61.0776 29.4245 60.7837 29.4245ZM60.7837 28.5353C61.0067 28.5353 61.1789 28.4669 61.3005 28.3301C61.4221 28.1933 61.4829 27.9982 61.4829 27.7449V26.9317C61.4829 26.6783 61.4221 26.4833 61.3005 26.3465C61.1789 26.2097 61.0067 26.1413 60.7837 26.1413C60.5608 26.1413 60.3885 26.2097 60.2669 26.3465C60.1453 26.4833 60.0845 26.6783 60.0845 26.9317V27.7449C60.0845 27.9982 60.1453 28.1933 60.2669 28.3301C60.3885 28.4669 60.5608 28.5353 60.7837 28.5353ZM63.4548 29.3333V25.3433H64.5796V26.2097H64.6176C64.6379 26.0982 64.6733 25.9918 64.724 25.8905C64.7747 25.7841 64.8405 25.6903 64.9216 25.6093C65.0077 25.5282 65.1091 25.4649 65.2256 25.4193C65.3421 25.3686 65.4789 25.3433 65.636 25.3433H65.8336V26.3921H65.5524C65.2231 26.3921 64.9773 26.4351 64.8152 26.5213C64.6581 26.6074 64.5796 26.767 64.5796 27.0001V29.3333H63.4548ZM70.1172 29.6221C70.1172 29.8349 70.0792 30.0223 70.0032 30.1845C69.9323 30.3466 69.8132 30.4834 69.646 30.5949C69.4788 30.7114 69.2559 30.7975 68.9772 30.8533C68.7036 30.9141 68.3641 30.9445 67.9588 30.9445C67.6143 30.9445 67.3204 30.9217 67.0772 30.8761C66.8391 30.8355 66.644 30.7747 66.492 30.6937C66.3451 30.6177 66.2361 30.5214 66.1652 30.4049C66.0993 30.2934 66.0664 30.1642 66.0664 30.0173C66.0664 29.7943 66.1323 29.6195 66.264 29.4929C66.3957 29.3662 66.5781 29.2877 66.8112 29.2573V29.1737C66.6187 29.1382 66.4743 29.0571 66.378 28.9305C66.2817 28.7987 66.2336 28.6467 66.2336 28.4745C66.2336 28.3681 66.2539 28.2769 66.2944 28.2009C66.34 28.1198 66.3957 28.0514 66.4616 27.9957C66.5325 27.9349 66.6136 27.8867 66.7048 27.8513C66.796 27.8158 66.8872 27.7879 66.9784 27.7677V27.7373C66.7352 27.6258 66.5553 27.4738 66.4388 27.2813C66.3223 27.0837 66.264 26.8557 66.264 26.5973C66.264 26.1919 66.4033 25.8677 66.682 25.6245C66.9657 25.3762 67.3964 25.2521 67.974 25.2521C68.2375 25.2521 68.463 25.2774 68.6504 25.3281V25.1761C68.6504 24.9633 68.7011 24.8113 68.8024 24.7201C68.9088 24.6238 69.0583 24.5757 69.2508 24.5757H69.8816V25.4117H69V25.4573C69.2331 25.5687 69.4053 25.7233 69.5168 25.9209C69.6283 26.1134 69.684 26.3389 69.684 26.5973C69.684 26.9975 69.5421 27.3193 69.2584 27.5625C68.9797 27.8006 68.5516 27.9197 67.974 27.9197C67.7156 27.9197 67.48 27.8918 67.2672 27.8361C67.1507 27.9121 67.0924 28.0185 67.0924 28.1553C67.0924 28.2515 67.1279 28.3275 67.1988 28.3833C67.2748 28.4339 67.3989 28.4593 67.5712 28.4593H68.7264C69.2128 28.4593 69.5649 28.5606 69.7828 28.7633C70.0057 28.9659 70.1172 29.2522 70.1172 29.6221ZM69.0608 29.7741C69.0608 29.6575 69.0152 29.5689 68.924 29.5081C68.8328 29.4473 68.6732 29.4169 68.4452 29.4169H67.0772C67.0265 29.4675 66.9885 29.5233 66.9632 29.5841C66.9429 29.6499 66.9328 29.7133 66.9328 29.7741C66.9328 29.921 66.9961 30.0274 67.1228 30.0933C67.2495 30.1642 67.4648 30.1997 67.7688 30.1997H68.2248C68.5288 30.1997 68.7441 30.1642 68.8708 30.0933C68.9975 30.0274 69.0608 29.921 69.0608 29.7741ZM67.974 27.1825C68.1969 27.1825 68.3616 27.1369 68.468 27.0457C68.5795 26.9494 68.6352 26.8126 68.6352 26.6353V26.5441C68.6352 26.3667 68.5795 26.2325 68.468 26.1413C68.3616 26.045 68.1969 25.9969 67.974 25.9969C67.7511 25.9969 67.5839 26.045 67.4724 26.1413C67.366 26.2325 67.3128 26.3667 67.3128 26.5441V26.6353C67.3128 26.8126 67.366 26.9494 67.4724 27.0457C67.5839 27.1369 67.7511 27.1825 67.974 27.1825ZM72.2368 29.4245C71.9328 29.4245 71.6618 29.3763 71.4236 29.2801C71.1855 29.1787 70.9828 29.0394 70.8156 28.8621C70.6535 28.6797 70.5293 28.4593 70.4432 28.2009C70.3621 27.9425 70.3216 27.6537 70.3216 27.3345C70.3216 27.0203 70.3621 26.7366 70.4432 26.4833C70.5243 26.2249 70.6433 26.0045 70.8004 25.8221C70.9625 25.6397 71.1601 25.5003 71.3932 25.4041C71.6263 25.3027 71.8923 25.2521 72.1912 25.2521C72.5205 25.2521 72.8018 25.3078 73.0348 25.4193C73.2729 25.5307 73.4655 25.6802 73.6124 25.8677C73.7644 26.0551 73.8733 26.273 73.9392 26.5213C74.0101 26.7645 74.0456 27.0203 74.0456 27.2889V27.6233H71.4844V27.6841C71.4844 27.9475 71.5554 28.1578 71.6972 28.3149C71.8391 28.4669 72.062 28.5429 72.366 28.5429C72.5991 28.5429 72.7891 28.4973 72.936 28.4061C73.0829 28.3098 73.2197 28.1958 73.3464 28.0641L73.9088 28.7633C73.7315 28.971 73.4984 29.1331 73.2096 29.2497C72.9259 29.3662 72.6016 29.4245 72.2368 29.4245ZM72.214 26.0805C71.986 26.0805 71.8061 26.1565 71.6744 26.3085C71.5477 26.4554 71.4844 26.653 71.4844 26.9013V26.9621H72.8828V26.8937C72.8828 26.6505 72.8271 26.4554 72.7156 26.3085C72.6092 26.1565 72.442 26.0805 72.214 26.0805ZM76.2384 29.3333C75.8483 29.3333 75.5519 29.2345 75.3492 29.0369C75.1516 28.8393 75.0528 28.5505 75.0528 28.1705V26.2173H74.4904V25.3433H74.7716C74.9236 25.3433 75.0275 25.3078 75.0832 25.2369C75.1389 25.1609 75.1668 25.0545 75.1668 24.9177V24.2641H76.1776V25.3433H76.968V26.2173H76.1776V28.4593H76.9072V29.3333H76.2384ZM81.8179 25.0545V29.3333H80.6627V25.0545H79.2263V24.0285H83.2543V25.0545H81.8179ZM83.9837 23.7093H85.1086V26.0197H85.1542C85.2251 25.8119 85.3492 25.6321 85.5266 25.4801C85.7039 25.3281 85.9496 25.2521 86.2637 25.2521C86.6741 25.2521 86.9832 25.3889 87.191 25.6625C87.4038 25.9361 87.5102 26.3262 87.5102 26.8329V29.3333H86.3853V26.9241C86.3853 26.6657 86.3448 26.4757 86.2637 26.3541C86.1827 26.2274 86.0383 26.1641 85.8306 26.1641C85.7393 26.1641 85.6507 26.1767 85.5645 26.2021C85.4784 26.2223 85.3999 26.2578 85.3289 26.3085C85.2631 26.3591 85.2099 26.4225 85.1693 26.4985C85.1288 26.5694 85.1086 26.653 85.1086 26.7493V29.3333H83.9837V23.7093ZM90.1755 29.4245C89.8715 29.4245 89.6004 29.3763 89.3623 29.2801C89.1242 29.1787 88.9215 29.0394 88.7543 28.8621C88.5922 28.6797 88.468 28.4593 88.3819 28.2009C88.3008 27.9425 88.2603 27.6537 88.2603 27.3345C88.2603 27.0203 88.3008 26.7366 88.3819 26.4833C88.463 26.2249 88.582 26.0045 88.7391 25.8221C88.9012 25.6397 89.0988 25.5003 89.3319 25.4041C89.565 25.3027 89.831 25.2521 90.1299 25.2521C90.4592 25.2521 90.7404 25.3078 90.9735 25.4193C91.2116 25.5307 91.4042 25.6802 91.5511 25.8677C91.7031 26.0551 91.812 26.273 91.8779 26.5213C91.9488 26.7645 91.9843 27.0203 91.9843 27.2889V27.6233H89.4231V27.6841C89.4231 27.9475 89.494 28.1578 89.6359 28.3149C89.7778 28.4669 90.0007 28.5429 90.3047 28.5429C90.5378 28.5429 90.7278 28.4973 90.8747 28.4061C91.0216 28.3098 91.1584 28.1958 91.2851 28.0641L91.8475 28.7633C91.6702 28.971 91.4371 29.1331 91.1483 29.2497C90.8646 29.3662 90.5403 29.4245 90.1755 29.4245ZM90.1527 26.0805C89.9247 26.0805 89.7448 26.1565 89.6131 26.3085C89.4864 26.4554 89.4231 26.653 89.4231 26.9013V26.9621H90.8215V26.8937C90.8215 26.6505 90.7658 26.4554 90.6543 26.3085C90.5479 26.1565 90.3807 26.0805 90.1527 26.0805ZM95.7908 29.3333H94.6356V24.0285H97.1512C97.3944 24.0285 97.6148 24.069 97.8124 24.1501C98.01 24.2311 98.1772 24.3477 98.314 24.4997C98.4559 24.6466 98.5648 24.8239 98.6408 25.0317C98.7168 25.2394 98.7548 25.4699 98.7548 25.7233C98.7548 26.083 98.6738 26.3971 98.5116 26.6657C98.3546 26.9342 98.1139 27.1293 97.7896 27.2509L98.8308 29.3333H97.5464L96.6192 27.3877H95.7908V29.3333ZM97.0068 26.4149C97.1791 26.4149 97.3134 26.3718 97.4096 26.2857C97.511 26.1945 97.5616 26.0627 97.5616 25.8905V25.5561C97.5616 25.3838 97.511 25.2546 97.4096 25.1685C97.3134 25.0773 97.1791 25.0317 97.0068 25.0317H95.7908V26.4149H97.0068ZM101.249 29.4245C100.945 29.4245 100.674 29.3763 100.436 29.2801C100.198 29.1787 99.995 29.0394 99.8278 28.8621C99.6656 28.6797 99.5415 28.4593 99.4554 28.2009C99.3743 27.9425 99.3338 27.6537 99.3338 27.3345C99.3338 27.0203 99.3743 26.7366 99.4554 26.4833C99.5364 26.2249 99.6555 26.0045 99.8126 25.8221C99.9747 25.6397 100.172 25.5003 100.405 25.4041C100.638 25.3027 100.904 25.2521 101.203 25.2521C101.533 25.2521 101.814 25.3078 102.047 25.4193C102.285 25.5307 102.478 25.6802 102.625 25.8677C102.777 26.0551 102.885 26.273 102.951 26.5213C103.022 26.7645 103.058 27.0203 103.058 27.2889V27.6233H100.497V27.6841C100.497 27.9475 100.567 28.1578 100.709 28.3149C100.851 28.4669 101.074 28.5429 101.378 28.5429C101.611 28.5429 101.801 28.4973 101.948 28.4061C102.095 28.3098 102.232 28.1958 102.359 28.0641L102.921 28.7633C102.744 28.971 102.511 29.1331 102.222 29.2497C101.938 29.3662 101.614 29.4245 101.249 29.4245ZM101.226 26.0805C100.998 26.0805 100.818 26.1565 100.687 26.3085C100.56 26.4554 100.497 26.653 100.497 26.9013V26.9621H101.895V26.8937C101.895 26.6505 101.839 26.4554 101.728 26.3085C101.621 26.1565 101.454 26.0805 101.226 26.0805ZM105.205 29.4245C104.82 29.4245 104.496 29.3637 104.232 29.2421C103.969 29.1154 103.733 28.9381 103.525 28.7101L104.187 28.0413C104.328 28.1983 104.485 28.3225 104.658 28.4137C104.83 28.5049 105.025 28.5505 105.243 28.5505C105.466 28.5505 105.62 28.5175 105.707 28.4517C105.793 28.3807 105.836 28.287 105.836 28.1705C105.836 27.983 105.701 27.8715 105.433 27.8361L105 27.7829C104.103 27.6714 103.655 27.261 103.655 26.5517C103.655 26.3591 103.69 26.1843 103.761 26.0273C103.837 25.8651 103.941 25.7283 104.073 25.6169C104.209 25.5003 104.371 25.4117 104.559 25.3509C104.751 25.285 104.967 25.2521 105.205 25.2521C105.413 25.2521 105.595 25.2673 105.752 25.2977C105.914 25.323 106.056 25.3635 106.178 25.4193C106.304 25.4699 106.418 25.5358 106.52 25.6169C106.626 25.6929 106.73 25.779 106.831 25.8753L106.185 26.5365C106.059 26.4098 105.914 26.311 105.752 26.2401C105.595 26.1641 105.433 26.1261 105.266 26.1261C105.073 26.1261 104.936 26.1565 104.855 26.2173C104.774 26.2781 104.734 26.3591 104.734 26.4605C104.734 26.5669 104.762 26.6505 104.817 26.7113C104.878 26.767 104.99 26.8075 105.152 26.8329L105.6 26.8937C106.477 27.0102 106.915 27.4105 106.915 28.0945C106.915 28.287 106.874 28.4643 106.793 28.6265C106.712 28.7886 106.596 28.9305 106.444 29.0521C106.297 29.1686 106.117 29.2598 105.904 29.3257C105.696 29.3915 105.463 29.4245 105.205 29.4245ZM109.021 29.3333C108.631 29.3333 108.334 29.2345 108.132 29.0369C107.934 28.8393 107.835 28.5505 107.835 28.1705V26.2173H107.273V25.3433H107.554C107.706 25.3433 107.81 25.3078 107.866 25.2369C107.921 25.1609 107.949 25.0545 107.949 24.9177V24.2641H108.96V25.3433H109.75V26.2173H108.96V28.4593H109.69V29.3333H109.021Z" fill="#265896"/>
<path id="Vector_4" d="M50.8661 28.9001C50.6989 29.0369 50.4963 29.1585 50.2581 29.2649C50.02 29.3713 49.716 29.4245 49.3461 29.4245C49.0523 29.4245 48.7939 29.389 48.5709 29.3181C48.348 29.2421 48.1605 29.1382 48.0085 29.0065C47.8565 28.8697 47.74 28.7126 47.6589 28.5353C47.5829 28.3529 47.5449 28.1553 47.5449 27.9425C47.5449 27.7601 47.5703 27.5979 47.6209 27.4561C47.6767 27.3142 47.7501 27.185 47.8413 27.0685C47.9376 26.9519 48.0516 26.8455 48.1833 26.7493C48.3151 26.653 48.4569 26.5593 48.6089 26.4681C48.5329 26.387 48.4595 26.2983 48.3885 26.2021C48.3176 26.1058 48.2543 26.0045 48.1985 25.8981C48.1428 25.7917 48.0972 25.6802 48.0617 25.5637C48.0313 25.4471 48.0161 25.3281 48.0161 25.2065C48.0161 25.0342 48.0516 24.8721 48.1225 24.7201C48.1985 24.563 48.3049 24.4262 48.4417 24.3097C48.5836 24.1931 48.7508 24.1019 48.9433 24.0361C49.1409 23.9702 49.3613 23.9373 49.6045 23.9373C49.8224 23.9373 50.0225 23.9651 50.2049 24.0209C50.3924 24.0715 50.5545 24.1501 50.6913 24.2565C50.8281 24.3578 50.9345 24.4845 51.0105 24.6365C51.0916 24.7885 51.1321 24.9607 51.1321 25.1533C51.1321 25.3205 51.1043 25.4725 51.0485 25.6093C50.9928 25.7461 50.9168 25.8727 50.8205 25.9893C50.7243 26.1007 50.6103 26.2046 50.4785 26.3009C50.3519 26.3971 50.2176 26.4883 50.0757 26.5745L50.8965 27.4637C50.9624 27.3015 51.0131 27.1293 51.0485 26.9469C51.084 26.7645 51.1068 26.5846 51.1169 26.4073H52.3861V27.3421H51.9073C51.8212 27.6663 51.7072 27.9475 51.5653 28.1857L52.6217 29.3333H51.2613L50.8661 28.9001ZM49.5741 24.7961C49.4373 24.7961 49.3208 24.8341 49.2245 24.9101C49.1333 24.9861 49.0877 25.0925 49.0877 25.2293V25.2597C49.0877 25.361 49.1207 25.4623 49.1865 25.5637C49.2524 25.6599 49.3639 25.7967 49.5209 25.9741C49.6983 25.8677 49.8325 25.7613 49.9237 25.6549C50.0149 25.5434 50.0605 25.4117 50.0605 25.2597V25.2293C50.0605 25.0925 50.0124 24.9861 49.9161 24.9101C49.8249 24.8341 49.7109 24.7961 49.5741 24.7961ZM49.5133 28.4897C49.8123 28.4897 50.0681 28.4187 50.2809 28.2769L49.1637 27.0685C48.9915 27.1698 48.8699 27.2737 48.7989 27.3801C48.728 27.4865 48.6925 27.6081 48.6925 27.7449V27.8209C48.6925 28.0134 48.7609 28.173 48.8977 28.2997C49.0345 28.4263 49.2397 28.4897 49.5133 28.4897Z" fill="#E2A739"/>
</g>
<defs>
<clipPath id="clip0_4955_26641">
<rect width="112" height="32" fill="white"/>
</clipPath>
</defs>
</svg>
